<svg width="20" height="21" fill="none" xmlns="http://www.w3.org/2000/svg"><g clip-path="url(#clip0_2100_12562)"><path d="M10 20.5c5.523 0 10-4.477 10-10S15.523.5 10 .5 0 4.977 0 10.5s4.477 10 10 10z" fill="#F7931A"/><path d="M14.494 9.262c.196-1.31-.802-2.014-2.166-2.484l.443-1.775-1.08-.269-.432 1.728a49.98 49.98 0 00-.865-.203l.434-1.74-1.08-.27-.442 1.775a29.564 29.564 0 01-.69-.162v-.006l-1.49-.372-.287 1.154s.802.184.785.195c.438.11.517.399.503.629l-.503 2.022c.03.007.068.018.112.035l-.114-.028-.706 2.833c-.054.132-.19.332-.496.256.011.015-.785-.196-.785-.196l-.536 1.236 1.406.351c.261.066.517.134.77.199l-.448 1.795 1.08.269.442-1.775c.295.079.582.153.862.223l-.442 1.767 1.08.269.447-1.791c1.843.348 3.228.208 3.81-1.458.47-1.342-.022-2.116-.992-2.62.706-.163 1.238-.627 1.38-1.587zm-2.47 3.462c-.332 1.341-2.592.616-3.324.434l.594-2.378c.732.183 3.08.545 2.73 1.944zm.335-3.481c-.304 1.22-2.184.6-2.793.448l.537-2.156c.61.152 2.574.435 2.256 1.708z" fill="#fff"/></g><defs><clipPath id="clip0_2100_12562"><rect y=".5" width="20" height="20" rx="9.722" fill="#fff"/></clipPath></defs></svg>