<svg width="33" height="32" fill="none" xmlns="http://www.w3.org/2000/svg"><path d="M3.166 16.815h22.667" stroke="#646E73" stroke-width="2" stroke-miterlimit="10" stroke-linecap="round" stroke-linejoin="round"/><path d="M25.833 13.71v9.534c-.04 3.8-1.08 4.76-5.04 4.76H8.206c-4.027 0-5.04-1-5.04-4.973v-9.32c0-3.6.84-4.76 4-4.947.32-.013.667-.027 1.04-.027h12.587c4.026 0 5.04 1 5.04 4.974z" stroke="#646E73" stroke-width="2" stroke-linecap="round" stroke-linejoin="round"/><path d="M29.833 8.973v9.32c0 3.6-.84 4.76-4 4.947v-9.533c0-3.974-1.014-4.974-5.04-4.974H8.206c-.373 0-.72.014-1.04.027.04-3.8 1.08-4.76 5.04-4.76h12.587c4.026 0 5.04 1 5.04 4.973z" stroke="#646E73" stroke-width="2" stroke-linecap="round" stroke-linejoin="round"/><path d="M7.5 23.747h2.293m2.853 0h4.587" stroke="#646E73" stroke-width="2" stroke-miterlimit="10" stroke-linecap="round" stroke-linejoin="round"/></svg>