<svg width="28" height="28" fill="none" xmlns="http://www.w3.org/2000/svg"><path d="M9.777 14l2.812 2.823 5.635-5.646" stroke="#0DAD69" stroke-width="1.766" stroke-linecap="round" stroke-linejoin="round"/><path d="M12.54 2.858c.805-.688 2.124-.688 2.94 0l1.844 1.587c.35.303 1.003.548 1.47.548h1.983a2.26 2.26 0 012.252 2.252v1.983c0 .455.245 1.12.548 1.47l1.587 1.844c.688.805.688 2.123 0 2.94l-1.587 1.843c-.303.35-.548 1.003-.548 1.47v1.983a2.26 2.26 0 01-2.252 2.252h-1.983c-.455 0-1.12.245-1.47.548l-1.844 1.587c-.805.688-2.123.688-2.94 0l-1.843-1.587c-.35-.303-1.003-.548-1.47-.548H7.21a2.26 2.26 0 01-2.252-2.252v-1.995c0-.455-.245-1.108-.537-1.458L2.845 15.47c-.676-.805-.676-2.112 0-2.917l1.575-1.855c.292-.35.537-1.003.537-1.458V7.233A2.26 2.26 0 017.21 4.982h2.018c.455 0 1.12-.245 1.47-.549l1.843-1.575z" stroke="#fff" stroke-width="1.766" stroke-linecap="round" stroke-linejoin="round"/></svg>