<svg width="20" height="20" fill="none" xmlns="http://www.w3.org/2000/svg"><path d="M2.397 16.893c.567.248 1.241.178 1.878-.189l3.264-1.885a.814.814 0 01.69-.079.853.853 0 01.51.495l1.038 2.726c.257.832 1.265 1.38 2.174 1.175.867-.16 1.518-1.004 1.576-1.677l.589-6.48.332.576c.646 1.12 1.416 1.293 2.655.578l.82-.474c1.239-.715 1.473-1.468.827-2.588L14.338 1.43C13.692.31 12.922.137 11.683.852l-.82.473c-1.172.677-1.425 1.399-.884 2.45L6.475 3.39c-.52-.127-1.374.133-1.91.442L1.468 5.62C.398 6.238-.232 7.624.08 8.703l1.327 6.822c.078.637.433 1.136.991 1.368z" fill="#B85959"/></svg>