<svg width="31" height="32" fill="none" xmlns="http://www.w3.org/2000/svg"><path d="M9.416 6.839a70.263 70.263 0 0112.17 0l1.95.17a3.731 3.731 0 012.987 1.995.304.304 0 01-.117.397l-8.094 5.01a5.49 5.49 0 01-5.682.06L4.482 9.655a.305.305 0 01-.132-.38 3.731 3.731 0 013.115-2.268l1.95-.17z" fill="#fff"/><path d="M4.343 11.824a.32.32 0 00-.482.242 39.21 39.21 0 00.238 9.764 3.73 3.73 0 003.366 3.161l1.95.17a70.26 70.26 0 0012.17 0l1.95-.17a3.73 3.73 0 003.367-3.161c.5-3.33.57-6.706.208-10.048a.32.32 0 00-.487-.236l-7.291 4.513a7.427 7.427 0 01-7.688.08l-7.301-4.315z" fill="#fff"/></svg>