<svg width="20" height="21" fill="none" xmlns="http://www.w3.org/2000/svg"><path d="M10.104 2.167v6.135a.056.056 0 01-.052.052c-.182.08-.338.158-.52.237-.235.105-.495.21-.73.342l-.86.395-.702.316-.86.395c-.234.106-.468.21-.729.342-.182.08-.39.185-.573.264-.026 0-.026.026-.052 0H5c.078-.132.156-.238.234-.369.417-.71.86-1.422 1.276-2.133.443-.763.912-1.527 1.355-2.29.416-.71.833-1.421 1.25-2.106.312-.527.625-1.027.911-1.554.052 0 .052-.026.078-.026 0 0-.026 0 0 0z" fill="#fff"/><path d="M15.156 10.645c-.39.264-.807.5-1.197.737-1.277.764-2.527 1.501-3.803 2.265-.026 0-.026.026-.052.026s-.026-.026-.026-.026V8.354c0-.026.026-.026.052-.026.104.052.209.106.339.158.312.158.65.29.963.448.287.132.547.263.834.368.286.132.547.264.833.395.235.106.495.21.73.343.234.105.494.21.728.342.183.079.365.184.573.263 0-.026 0 0 .026 0z" fill="#7799F1"/><path d="M10.104 18.834c-.026 0 0 0 0 0-.026 0-.026 0-.052-.027-.52-.737-1.016-1.448-1.536-2.185L6.953 14.41c-.495-.71-1.016-1.42-1.51-2.16l-.391-.552c0-.026-.026-.026-.026-.052.026 0 .026.026.052.026.703.421 1.432.842 2.135 1.263.808.501 1.641.975 2.449 1.475.13.08.286.158.416.237.026 0 .026.027.026.053v4.134z" fill="#fff"/><path d="M5 10.37c0-.027 0-.027 0 0 .26-.132.52-.237.781-.369l1.016-.474c.26-.132.52-.237.781-.368.365-.185.755-.343 1.12-.527.26-.106.52-.237.781-.342.183-.08.365-.158.547-.264.026 0 .026-.026.052-.026v5.37c-.026.028-.026 0-.052 0-.078-.051-.156-.078-.208-.13l-4.766-2.844C5.026 10.37 5 10.37 5 10.37zm10.079.974c0 .026 0 .026-.027.052-1.51 2.16-3.02 4.292-4.53 6.451-.157.237-.313.447-.47.685v-4.187c.339-.21.677-.421 1.016-.605l3.985-2.37c0-.026.026-.026.026-.026zm-4.975-3.016V2.195l5 8.372c.026.026.052.052.052.079-.104-.052-.208-.106-.338-.158-.13-.053-.26-.132-.39-.184-.079-.027-.157-.08-.261-.106-.13-.052-.287-.132-.417-.184-.078-.027-.156-.079-.234-.106l-.547-.236c-.104-.053-.183-.08-.287-.132-.13-.053-.26-.132-.39-.184-.079-.027-.157-.08-.235-.105l-.547-.238c-.104-.052-.182-.079-.286-.131-.13-.053-.26-.132-.39-.185-.079-.052-.183-.079-.261-.13l-.469-.238v-.001z" fill="#BECDF9"/></svg>