<svg width="644" height="922" fill="none" xmlns="http://www.w3.org/2000/svg"><g filter="url(#filter0_f_2100_12542)"><path d="M935.5 287.434c122.33-90.589 176.48-207.813 201.19-340.156l356.29 463.952c-189.53 68.731-229.23 393.263-557.48 177.642-196.241-128.906-640.27-46.596-674.314-108.161-24.039-43.469 531.897-87.816 674.314-193.277z" fill="#003B24"/></g><g opacity=".7" filter="url(#filter1_f_2100_12542)"><path d="M874.414 384.713C1144.41 272.116 1103.46 222.474 1144.41 174l56.76 449.217c-44.84-25.955-219.228-68.24-310.771-89.913-129.529-30.666-323.071-33.696-314.985-65.251 8.086-31.555 245.789-61.149 299-83.34z" fill="#27805E"/></g><defs><filter id="filter0_f_2100_12542" x=".429" y="-312.722" width="1752.55" height="1234.52" filterUnits="userSpaceOnUse" color-interpolation-filters="sRGB"><feFlood flood-opacity="0" result="BackgroundImageFix"/><feBlend in="SourceGraphic" in2="BackgroundImageFix" result="shape"/><feGaussianBlur stdDeviation="130" result="effect1_foregroundBlur_2100_12542"/></filter><filter id="filter1_f_2100_12542" x="375.169" y="-26" width="1026" height="849.217" filterUnits="userSpaceOnUse" color-interpolation-filters="sRGB"><feFlood flood-opacity="0" result="BackgroundImageFix"/><feBlend in="SourceGraphic" in2="BackgroundImageFix" result="shape"/><feGaussianBlur stdDeviation="100" result="effect1_foregroundBlur_2100_12542"/></filter></defs></svg>