<svg width="375" height="1188" fill="none" xmlns="http://www.w3.org/2000/svg"><g filter="url(#filter0_f_2100_14858)"><path d="M-560.503 1008.16c-152.398 21.39-186.676-226.137-306.252-351.906-31.396-33.022-635.445-55.376-758.225-111.345-69.67-31.757-4.94-280.76-27.24-350.515-8.02-10.432-11.84-16.524-11.84-16.524 5.39 2.602 9.22 8.325 11.84 16.524 49.28 64.139 257.22 292.346 712.139 277.675 528.916-17.057 1077.24-282.058 1077.24-282.058l157.222 24.15C404.046 382.085 446.74 613.896-284.126 637.465c-143.218 4.619-123.98 349.307-276.377 370.695z" fill="#26BB76" fill-opacity=".37"/></g><defs><filter id="filter0_f_2100_14858" x="-1841.62" y=".305" width="2375.2" height="1186.72" filterUnits="userSpaceOnUse" color-interpolation-filters="sRGB"><feFlood flood-opacity="0" result="BackgroundImageFix"/><feBlend in="SourceGraphic" in2="BackgroundImageFix" result="shape"/><feGaussianBlur stdDeviation="88.782" result="effect1_foregroundBlur_2100_14858"/></filter></defs></svg>