<svg width="19" height="18" fill="none" xmlns="http://www.w3.org/2000/svg"><path d="M18.073 7.542c-.367-.499-.986-.776-1.72-.776h-3.77a.815.815 0 01-.638-.277.854.854 0 01-.193-.683l.464-2.88c.193-.849-.406-1.827-1.295-2.104-.831-.295-1.817.11-2.204.664l-3.75 5.317V6.14c0-1.293-.58-1.828-2.01-1.828H2.01C.58 4.31 0 4.846 0 6.139v8.824c0 1.292.58 1.827 2.01 1.827h.947c1.353 0 1.933-.498 1.991-1.68l2.842 2.086c.386.37 1.256.573 1.875.573h3.576c1.236 0 2.474-.886 2.744-1.976l2.262-6.572c.251-.59.193-1.2-.174-1.68z" fill="#A0F66C"/></svg>