<svg width="133" height="30" fill="none" xmlns="http://www.w3.org/2000/svg"><path d="M30.619 10.966c1.23-4.399-2.072-8.758-6.634-8.758H14.15a6.89 6.89 0 00-6.536 4.717L0 29.799 16.534 22.9H9.186l4.069-12.223a2.297 2.297 0 012.178-1.572h6.69a2.299 2.299 0 012.189 2.994l-5.023 15.86 7.349-2.76 3.98-14.234z" fill="url(#paint0_linear_2100_66746)"/><path d="M30.71 24.275l3.88-13.016a4.17 4.17 0 01.933-1.633 5.423 5.423 0 011.577-1.19 4.196 4.196 0 011.857-.475l10.17-.133c.629-.009 1.15.135 1.564.43.434.279.734.665.9 1.158.171.478.167 1.018-.013 1.62L47.7 24.054l-3.445.045 1.596-5.356-10.146.133-1.596 5.356-3.398.044zm5.964-8.654l10.147-.133 1.266-4.248c.013-.045.006-.075-.02-.09-.008-.03-.035-.044-.082-.044l-9.863.13a.22.22 0 00-.131.046c-.02.015-.037.046-.05.09l-1.267 4.25zm13.857 8.395l2.956-9.92a4.074 4.074 0 01.92-1.588 5.528 5.528 0 011.57-1.168c.61-.308 1.213-.466 1.81-.474l7.575-.1-.956 3.21-7.433.097a.192.192 0 00-.108.046.191.191 0 00-.074.091l-2.91 9.762-3.35.044zm15.981-.209c-.614.008-1.13-.128-1.548-.407a2.372 2.372 0 01-.877-1.16c-.155-.477-.147-1.003.024-1.575L68.245 6.79l3.35-.044-1.178 3.955 5.215-.069-.956 3.21-5.215.067-1.953 6.554c-.009.03-.002.06.02.09.023.03.05.044.082.043l5.073-.066-.957 3.209-5.214.068zm10.678-.14c-.597.008-1.105-.128-1.522-.408a2.372 2.372 0 01-.877-1.159c-.156-.478-.148-1.003.023-1.576l2.006-6.734a4.078 4.078 0 01.92-1.587 5.531 5.531 0 011.57-1.169c.594-.308 1.19-.466 1.787-.473l7.22-.095c.613-.008 1.127.136 1.54.43.419.28.705.659.86 1.137.156.478.148 1.004-.022 1.576l-1.489 4.994-10.523.138-.472 1.581c-.009.03-.002.06.02.09.023.03.05.044.081.044l10.383-.136-.956 3.21-10.548.137zm2.348-7.796l7.173-.094.586-1.966c.009-.03.002-.06-.02-.09-.023-.03-.05-.044-.081-.044l-6.89.09a.193.193 0 00-.108.047.192.192 0 00-.074.09l-.586 1.967zM89.86 23.5l.289-.97 6.557-5.76-3.23-5.404.289-.972 3.54-.046 2.33 3.931 4.677-4.023 3.54-.046-.29.972-6.49 5.532 3.164 5.63-.29.973-3.516.046-2.283-4.09-4.748 4.181-3.54.047z" fill="#fff"/><path d="M114.05.201l.04 6.002 10.842.82-11.244.82-2.977 6.002-.04-6.002-10.843-.82 11.244-.82L114.05.201zm-1.977 18.311l1.018-2.053 3.845-.28-3.707-.28-.014-2.053-1.018 2.052-3.845.28 3.707.281.014 2.053zm10.047 0l1.018-2.053 3.845-.28-3.708-.28-.013-2.053-1.018 2.052-3.846.28 3.708.281.014 2.053z" fill="#fff"/><path d="M118.104 13.495l1.019-2.052 3.844-.28-3.707-.281-.014-2.053-1.018 2.053-3.845.28 3.707.28.014 2.053zm-2.523 9.934l1.018-2.053 3.845-.28-3.708-.28-.013-2.053-1.018 2.052-3.846.28 3.708.281.014 2.053zm12.562-9.934l1.019-2.052 3.845-.28-3.708-.281-.014-2.053-1.018 2.053-3.845.28 3.708.28.013 2.053z" fill="#fff"/><defs><linearGradient id="paint0_linear_2100_66746" x1="0" y1="29.799" x2="33.1" y2="2.938" gradientUnits="userSpaceOnUse"><stop stop-color="#24A871"/><stop offset="1" stop-color="#FFA318"/></linearGradient></defs></svg>