<svg width="45" height="44" fill="none" xmlns="http://www.w3.org/2000/svg"><path d="M40.21 19.14l-1.796 7.664c-1.54 6.619-4.584 9.295-10.304 8.745a19.265 19.265 0 01-2.97-.495l-3.08-.733c-7.645-1.815-10.01-5.592-8.213-13.255l1.797-7.682c.366-1.558.806-2.915 1.356-4.033 2.145-4.437 5.794-5.628 11.917-4.18l3.062.715c7.681 1.797 10.028 5.592 8.231 13.255z" stroke="#8B969B" stroke-width="2.75" stroke-linecap="round" stroke-linejoin="round"/><path d="M28.11 35.548c-1.136.77-2.566 1.412-4.308 1.98l-2.896.953c-7.279 2.347-11.11.385-13.475-6.893l-2.347-7.242c-2.347-7.278-.403-11.128 6.875-13.475l2.897-.953c.751-.238 1.466-.44 2.145-.568-.55 1.118-.99 2.475-1.357 4.033l-1.797 7.682c-1.796 7.663.569 11.44 8.214 13.255l3.08.733a19.27 19.27 0 002.97.495zm-4.437-19.911l8.891 2.255m-10.687 4.842l5.317 1.357" stroke="#8B969B" stroke-width="2.75" stroke-linecap="round" stroke-linejoin="round"/></svg>