<svg width="73" height="17" fill="none" xmlns="http://www.w3.org/2000/svg"><g clip-path="url(#clip0_2113_15309)"><path d="M29.934 16.23H2.698c-.954 0-1.726-.788-1.726-1.76V2.885c0-.972.772-1.76 1.726-1.76h27.236V16.23z" fill="url(#paint0_linear_2113_15309)"/><path d="M70.23 16.23H29.934V1.125h40.298c.954 0 1.726.787 1.726 1.759v11.59c0 .967-.772 1.754-1.726 1.754z" fill="url(#paint1_linear_2113_15309)"/><path d="M9.816 10.286c0 .572-.08 1.03-.233 1.371-.154.341-.358.602-.602.775-.244.18-.517.296-.818.354a4.691 4.691 0 01-.886.086h-2.88V4.545h3.17c.409 0 .738.07 1 .208.26.14.465.319.618.544.154.226.256.475.313.747.056.272.08.544.073.804-.01.758-.198 1.273-.562 1.545.239.116.432.324.585.625.148.307.222.73.222 1.268zM8.044 6.877c0-.26-.029-.457-.091-.584-.063-.128-.182-.191-.364-.191H5.95v1.66h1.493c.233 0 .386-.08.471-.237.085-.162.13-.382.13-.648zm.216 3.42c0-.231-.017-.416-.057-.55a.913.913 0 00-.142-.318.396.396 0 00-.193-.15.632.632 0 00-.205-.035H5.948v1.996h1.585c.272 0 .465-.075.568-.22.107-.15.159-.387.159-.723zm7.768 2.575h-5.19V4.545h5.1V6.16h-3.556v1.533h3.271v1.615h-3.27v1.938h3.645v1.626zm6.009-2.46c0 1.754-.926 2.634-2.777 2.634-.898 0-1.585-.26-2.056-.776-.471-.52-.704-1.319-.704-2.401h1.505c.011.237.04.463.08.66.039.202.113.37.215.515.102.144.233.254.397.335.165.081.375.122.63.122.421 0 .722-.081.91-.237.187-.157.283-.47.283-.92 0-.238-.04-.411-.113-.516a.764.764 0 00-.352-.248 3.343 3.343 0 00-.66-.162 7.782 7.782 0 01-.88-.197 5.385 5.385 0 01-.71-.26 1.752 1.752 0 01-.573-.411 1.838 1.838 0 01-.38-.695c-.091-.283-.137-.66-.137-1.123 0-.34.04-.636.125-.885.08-.249.194-.463.33-.636a1.82 1.82 0 01.471-.423c.182-.11.364-.19.551-.249.187-.058.375-.098.562-.115.188-.018.364-.03.517-.03.534 0 .971.087 1.3.255.335.168.591.394.778.66.188.272.313.579.375.914a5.6 5.6 0 01.097 1.007h-1.477a7.97 7.97 0 01-.056-.463 1.245 1.245 0 00-.108-.44.72.72 0 00-.267-.295c-.13-.086-.335-.133-.614-.133-.215 0-.397.018-.54.058a.778.778 0 00-.329.174.597.597 0 00-.164.3 1.97 1.97 0 00-.046.44c0 .203.046.348.131.434.085.087.25.162.488.226.25.07.5.127.756.174.255.046.5.104.738.167.239.064.46.151.664.26.205.11.387.256.54.446.153.191.278.435.363.73.097.295.137.665.137 1.105zm5.639-4.258h-1.869v6.718h-1.55V6.154H22.39V4.545h5.281v1.609h.006z" fill="#fff"/><path d="M37.696 9.81a6.194 6.194 0 01-.221 1.238 3.162 3.162 0 01-.495 1.024c-.215.296-.5.527-.846.7-.346.174-.766.261-1.26.261-.568 0-1.051-.098-1.449-.295a2.479 2.479 0 01-.965-.856c-.244-.377-.426-.84-.534-1.39a9.336 9.336 0 01-.17-1.88c0-.648.062-1.238.182-1.76.119-.52.306-.966.562-1.336.255-.364.579-.648.965-.845.392-.197.858-.295 1.397-.295.545 0 .988.087 1.335.26.346.174.619.4.829.678.204.277.352.596.443.949.09.353.153.711.193 1.064h-1.465a6.649 6.649 0 00-.12-.532 1.285 1.285 0 00-.193-.44.943.943 0 00-.352-.295c-.147-.075-.346-.11-.596-.11-.3 0-.556.052-.76.15a1.13 1.13 0 00-.5.487c-.126.225-.217.52-.273.885-.057.365-.08.816-.08 1.354 0 .544.04.978.114 1.32.074.335.181.601.318.786.136.191.3.319.5.388.198.07.414.104.658.104.25 0 .443-.04.59-.115a.833.833 0 00.347-.33c.085-.145.154-.313.2-.51.05-.196.096-.416.147-.665h1.499v.006zm6.218 3.061H42.37V9.277h-2.328v3.594h-1.545V4.544h1.544V7.65h2.329V4.544h1.544v8.327zm6.514 0H48.81l-.426-1.719h-2.056l-.42 1.72h-1.562l2.238-8.328h1.533l2.311 8.327zm-2.43-3.27l-.637-2.679-.652 2.68h1.289zm6.968 3.27l-2.363-5.07v5.07h-1.545V4.544h1.517l2.38 5.034V4.544h1.532v8.327h-1.521zm8.49 0H62.2v-.845a1.502 1.502 0 01-.341.492 1.721 1.721 0 01-.943.451c-.17.03-.34.041-.505.041-.568 0-1.045-.11-1.426-.336a2.585 2.585 0 01-.92-.925 4.186 4.186 0 01-.494-1.401 9.822 9.822 0 01-.148-1.736c0-2.824 1.04-4.236 3.124-4.236.517 0 .948.087 1.306.255.358.168.648.399.869.677.221.283.38.607.477.966.096.365.148.74.148 1.123h-1.579a4.17 4.17 0 00-.034-.521 1.256 1.256 0 00-.154-.475.893.893 0 00-.369-.341c-.164-.087-.386-.133-.67-.133-.284 0-.528.046-.72.145a1.152 1.152 0 00-.484.457c-.124.208-.215.48-.272.81a7.14 7.14 0 00-.086 1.192c0 .51.023.949.074 1.314.051.364.136.66.261.88.125.225.29.387.495.491.204.104.465.156.783.156.182 0 .352-.029.517-.086.165-.058.307-.151.426-.272.12-.122.216-.284.284-.475a1.96 1.96 0 00.091-.694h-1.454V8.31h3.01v4.56h-.012zm6.15 0h-5.18V4.544h5.089v1.614H65.97v1.534h3.26v1.614h-3.26v1.939h3.635v1.626z" fill="#363636"/></g><defs><linearGradient id="paint0_linear_2113_15309" x1="15.453" y1="16.229" x2="15.453" y2="1.126" gradientUnits="userSpaceOnUse"><stop stop-color="#1C1C1C"/><stop offset="1" stop-color="#4B4B4B"/></linearGradient><linearGradient id="paint1_linear_2113_15309" x1="50.945" y1="16.229" x2="50.945" y2="1.126" gradientUnits="userSpaceOnUse"><stop stop-color="#BCBCBC"/><stop offset="1" stop-color="#F3F3F3"/></linearGradient><clipPath id="clip0_2113_15309"><path fill="#fff" transform="translate(.972 .811)" d="M0 0h71.584v15.733H0z"/></clipPath></defs></svg>