<svg width="82" height="20" fill="none" xmlns="http://www.w3.org/2000/svg"><g clip-path="url(#clip0_2113_15322)" fill-rule="evenodd" clip-rule="evenodd"><path d="M58.685 6.919c-.123.079-.178.34-.71 3.358-.146.831-.31 1.746-.364 2.033-.054.287-.128.794-.165 1.127l-.066.605.604-.032c.707-.037.651.07.977-1.856.112-.66.327-1.88.478-2.712.39-2.151.414-2.402.243-2.512-.178-.113-.826-.12-.997-.011zm2.583.007c-.171.109-.444 1.354-.815 3.716-.027.172-.165.94-.307 1.708-.141.768-.233 1.46-.202 1.538.036.096.236.143.611.143.558 0 .558 0 .678-.404.067-.221.12-.491.121-.6.001-.3.207-.978.297-.978.045 0 .326.446.626.991l.544.99h.667c.627 0 .667-.014.667-.24 0-.131-.043-.284-.096-.338-.132-.137-1.253-2.14-1.253-2.24 0-.045.432-.47.96-.945s.975-.925.994-1c.025-.104-.143-.138-.678-.138h-.71l-.67.678c-.367.373-.72.678-.784.678-.082 0-.09-.147-.03-.495.048-.273.133-.777.189-1.121.055-.344.145-.86.199-1.145.129-.686.018-.89-.485-.887-.212 0-.448.04-.523.09zm-40.146.291c-.238.026-.488.113-.555.194-.067.08-.232.794-.366 1.585-.434 2.547-.68 3.93-.771 4.344-.05.222-.067.465-.038.54.08.21 1.318.301 2.297.17 1.057-.142 1.764-.5 2.17-1.102.251-.372.29-.53.29-1.179 0-.675-.028-.778-.285-1.048-.157-.165-.286-.335-.286-.379 0-.043.142-.199.316-.345.432-.366.618-.77.618-1.342 0-.584-.255-.99-.78-1.24-.381-.182-1.774-.287-2.61-.198zm4.951.264c-.235.253-.279.705-.087.898.198.198.958.155 1.157-.066.2-.222.227-.755.047-.935-.213-.214-.88-.153-1.117.103zm15.996.013c-.248.265-.296.689-.101.885.197.198.957.155 1.156-.066.2-.222.228-.755.048-.935-.218-.219-.853-.151-1.103.116zM29.015 7.9c-.281.09-.341.178-.458.667-.13.541-.147.562-.48.562-.355 0-.362.013-.39.595-.006.107.094.204.25.242.238.059.257.107.235.579-.014.282-.08.748-.149 1.035-.067.287-.126.865-.13 1.286-.007.713.012.782.283 1.017.241.208.404.252.94.252.808 0 1.029-.142.983-.63-.036-.375-.015-.363-.744-.403-.168-.009-.185-.082-.144-.61.064-.801.253-1.916.385-2.264.099-.26.146-.28.597-.247.45.032.502.011.63-.258.219-.456.103-.594-.499-.594H29.8l.07-.677.069-.678-.3.01a2.769 2.769 0 00-.623.116zm21.57.004c-.239.077-.357.19-.399.38-.152.7-.21.793-.515.829-.35.04-.456.168-.458.55-.001.224.058.287.319.34.312.062.319.076.255.508a17.4 17.4 0 01-.184.965c-.065.286-.122.889-.125 1.338-.007.77.01.831.284 1.069.242.21.403.252.952.252.78 0 1.016-.163.968-.665-.028-.282-.074-.327-.343-.338-.623-.024-.6.007-.54-.692.08-.96.267-2.047.391-2.28.087-.164.203-.2.571-.181.531.027.64-.05.686-.485.033-.308.025-.313-.537-.365-.327-.03-.563-.1-.551-.164.011-.062.052-.355.091-.652l.071-.54-.299.012c-.164.005-.451.06-.637.12zm-27.872.294c.36.137.447.269.449.683.003.624-.626 1.08-1.49 1.082h-.297l.07-.599c.038-.33.117-.752.175-.938.092-.294.153-.34.455-.34.192 0 .479.05.638.112zm10.388.875a2.849 2.849 0 00-1.771 1.164c-.458.65-.574 1.02-.583 1.855-.01.893.291 1.495.896 1.791.505.247 1.8.318 2.365.13.352-.118.42-.188.446-.46.048-.486-.142-.585-.84-.438-.504.106-.636.099-.95-.051-1.204-.577-.577-2.765.899-3.136.161-.04.464-.007.712.079.501.173.642.14.818-.192.211-.395.1-.598-.41-.75-.554-.167-.79-.166-1.582.008zm4.454.005c-1.333.368-2.157 1.513-2.18 3.026-.01.668.022.803.282 1.18.808 1.171 2.845 1.138 3.923-.065.48-.535.639-.855.802-1.62.262-1.224-.297-2.264-1.37-2.548-.594-.157-.806-.153-1.457.027zm8.75-.09c-.085.035-.31.134-.498.221-.258.119-.373.129-.462.04-.097-.098-1.103-.181-1.12-.093-.003.014-.1.612-.215 1.33a140.57 140.57 0 01-.306 1.824 20.94 20.94 0 00-.162 1.127l-.068.605.605-.032c.705-.037.66.05.972-1.855.213-1.296.356-1.633.83-1.953.438-.297.674-.3.957-.016.198.199.215.297.156.93-.06.652-.141 1.126-.38 2.233-.059.27-.051.46.021.547.13.158 1.081.183 1.175.032.058-.095.131-.454.372-1.827.05-.286.121-.873.156-1.303.059-.711.042-.815-.184-1.147-.136-.2-.383-.43-.549-.51-.335-.163-1.06-.248-1.3-.152zm7.938.084c-.782.193-.984.331-.984.674 0 .453.21.569.69.382.763-.298 1.23-.258 1.42.123.208.412.115.547-.373.547-.487 0-.969.134-1.625.451-1.152.558-1.412 2.216-.427 2.728.395.205 1.277.202 1.676-.005.236-.122.35-.134.454-.046.077.064.363.102.636.085l.495-.032.296-1.721c.162-.946.268-1.868.236-2.048-.1-.563-.472-.994-.988-1.147-.552-.164-.809-.163-1.507.01zM69.5 9.036c-.955.217-1.613.736-2.01 1.587-.702 1.506-.382 2.877.787 3.37.533.226 1.497.179 2.128-.102.552-.246 1.185-.848 1.466-1.394.294-.571.42-1.544.27-2.083a2 2 0 00-1.372-1.363c-.556-.147-.683-.148-1.27-.015zm5.608.091c-.286.147-.44.175-.533.099-.071-.06-.355-.094-.63-.076l-.501.032-.064.469a77.368 77.368 0 01-.349 2.033c-.156.86-.29 1.729-.299 1.93l-.015.364.546.032c.513.03.551.014.654-.258.06-.16.201-.818.313-1.462.113-.657.295-1.33.413-1.53.216-.369.74-.692 1.121-.692.256 0 .43-.288.43-.711 0-.23-.059-.323-.234-.37-.35-.095-.414-.084-.852.14zm2.954-.063c-1.154.385-1.836 1.193-2.075 2.46-.29 1.535.554 2.606 1.95 2.476.326-.03.697-.088.825-.128.641-.203-.078.896-.757 1.156-.458.176-.5.176-1.066-.014a26.787 26.787 0 00-.717-.233c-.128-.035-.546.558-.547.776 0 .242.859.481 1.722.48 1.816-.002 2.696-.826 3.059-2.863.248-1.388.301-1.716.368-2.249.038-.303.11-.575.158-.606.049-.03.089-.316.089-.635v-.58l-.648.05c-.4.03-.803-.006-1.051-.092-.472-.165-.81-.165-1.31.002zM25.71 9.26c-.023.072-.115.553-.206 1.069-.09.516-.208 1.173-.26 1.46-.421 2.316-.431 2.242.304 2.242.635 0 .631.007.929-1.744.114-.676.28-1.62.366-2.1.087-.478.132-.912.1-.964-.09-.148-1.186-.115-1.233.037zm15.985.104l-.157.756c-.235 1.127-.565 3.147-.572 3.494l-.006.364h1.124l.127-.417c.111-.368.55-2.772.727-3.988l.064-.444h-.63c-.57 0-.634.023-.677.235zm-2.87.874c.297.38.296 1.33-.005 1.97-.494 1.058-1.65 1.298-2.016.419-.302-.726-.105-1.551.53-2.216.365-.384.485-.447.85-.447.337 0 .471.057.641.274zm31.787.047c.46.622.132 2.116-.574 2.621-.376.27-1.005.31-1.225.08-.21-.22-.404-.696-.404-.99 0-.483.418-1.387.794-1.719.475-.418 1.096-.415 1.409.008zm8.695-.036c.2.255.215.363.15 1.016-.085.866-.236 1.201-.706 1.561-.548.42-1.067.324-1.364-.253-.32-.623-.107-1.5.523-2.162.348-.365.495-.447.8-.447.283 0 .427.069.597.285zm-56.894.863c.188.115.38.313.427.442.237.643-.466 1.464-1.356 1.583-.292.039-.57.031-.618-.017-.07-.07.126-1.52.282-2.087.057-.209.88-.157 1.265.079zm32.86.61c.1.164-.14.777-.42 1.07-.323.34-.81.48-1.029.297-.4-.335.027-1.17.671-1.312a5.04 5.04 0 00.371-.094c.196-.065.351-.05.406.039zm9.615 1.228c-.255.326-.279.793-.052 1.021.252.253.9.21 1.168-.077.25-.268.308-.887.102-1.094-.07-.069-.323-.125-.564-.125-.35 0-.482.055-.654.275z" fill="#fff"/><path d="M7.696 1.315c-.776.115-2.078.56-2.903.994C2.728 3.394 1.056 5.562.418 7.982c-.3 1.139-.323 3.04-.048 4.067.489 1.833 1.208 3.117 2.434 4.35 1.687 1.695 3.763 2.549 6.197 2.549 2.438 0 4.607-.928 6.282-2.69 1.171-1.231 1.884-2.507 2.278-4.079.283-1.127.282-3.028-.002-4.154-.626-2.479-2.411-4.743-4.618-5.854-1.577-.795-3.52-1.112-5.245-.856zm2.511.837c3.523.55 6.235 3.345 6.741 6.95.365 2.598-.772 5.48-2.837 7.193a8.016 8.016 0 01-10.873-.584C.549 12.96.214 8.585 2.45 5.436a8.02 8.02 0 017.757-3.284zM8.323 3.768c-1.325.223-2.092.52-3.05 1.182-1.022.707-2.007 2.14-2.408 3.502-.258.875-.236 2.585.043 3.465.946 2.98 3.762 4.85 6.792 4.508 2.314-.26 4.294-1.792 5.186-4.01.322-.803.335-.891.335-2.295 0-1.402-.013-1.493-.334-2.294-.747-1.863-2.28-3.283-4.144-3.839-.56-.167-1.97-.295-2.42-.22zm0 1.868l.052.73.333.032.332.033.03-.763.031-.762h.831l.031.674c.017.37.077.728.132.795.055.067.29.152.522.19.581.093 1.373.515 1.59.846.39.6.3 1.454-.203 1.93-.344.325-.324.43.129.675.537.291.766.736.77 1.492.006 1.308-.7 2.021-2.162 2.184l-.706.078-.051.782-.052.782-.32.032c-.436.042-.546-.132-.583-.922-.031-.672-.032-.674-.343-.674h-.311l-.052.782-.052.782-.32.032c-.435.042-.545-.132-.582-.922l-.032-.674-.908-.03-.908-.03v-.466c0-.463.001-.465.37-.465.796 0 .772.084.772-2.709 0-1.88-.032-2.512-.13-2.574-.071-.045-.34-.106-.597-.137-.466-.054-.467-.055-.467-.471V6.47l.96-.03.96-.03v-.708c0-.39.033-.742.074-.783.041-.041.24-.06.441-.044l.367.031.052.73zm.07 1.895c-.039.038-.07.483-.07.988 0 .898.006.92.264.986.146.037.527.045.848.018.493-.041.629-.1.877-.38.558-.626.277-1.45-.55-1.617-.428-.086-1.283-.083-1.37.005zm-.026 3.093c-.029.076-.039.557-.022 1.069l.03.93.954-.001c1.123-.002 1.442-.166 1.688-.867.142-.403.138-.45-.062-.72a1.658 1.658 0 00-.463-.418c-.352-.182-2.055-.177-2.125.007z" fill="#FFB629"/></g><defs><clipPath id="clip0_2113_15322"><path fill="#fff" transform="translate(.178 .458)" d="M0 0h81.054v19.26H0z"/></clipPath></defs></svg>