<svg width="71" height="20" fill="none" xmlns="http://www.w3.org/2000/svg"><g clip-path="url(#clip0_2113_15303)" fill-rule="evenodd" clip-rule="evenodd"><path d="M16.72 1.668a29.38 29.38 0 00-16.693 0v9.318c0 3.681 3.187 7.014 8.347 8.732 5.15-1.718 8.346-5.103 8.346-8.732V1.667zm-4.767 11.525c-.588.43-1.223.52-1.576.571l-.144.022c-.056 0-.14.007-.238.016-.143.012-.319.027-.495.027v1.867H8.374v-1.814h-.882v1.815H6.357v-1.815H4.148l.245-1.37h.69c.244 0 .34 0 .445-.104.096-.096.096-.245.096-.34V7.355c0-.288 0-.392-.149-.532-.148-.148-.436-.148-.637-.148h-.69V5.498h2.209V3.684h1.135v1.814h.882V3.684H9.5v1.858c.838.052 1.476.2 2.017.637.68.54.68 1.422.637 1.675 0 .192-.105.636-.297.88-.2.289-.637.542-.637.542s.541.096.934.392c.393.288.681.785.637 1.562 0 .741-.148 1.527-.838 1.963zm8.914 1.167c-.2 0-.384-.008-.559-.017a5.008 5.008 0 01-.646-.087 4.338 4.338 0 01-.497-.14 7.422 7.422 0 01-.56-.2l1.87-7.896 1.667-.244-.69 2.792c.21-.07.41-.123.611-.157a2.67 2.67 0 01.69-.044c.2.017.384.061.55.122.21.079.384.192.532.332.123.122.227.261.315.41.105.209.183.436.244.671.023.115.04.23.055.338l.006.046c.027.227.027.454.01.68a3.39 3.39 0 01-.132.734 3.55 3.55 0 01-.288.732 3.329 3.329 0 01-.611.855 3.511 3.511 0 01-1.126.776c-.21.088-.42.158-.646.201a3.42 3.42 0 01-.795.096zm.393-4.414l-.742 2.992.043.006c.113.015.215.03.324.03.078 0 .165 0 .244-.01.14-.008.262-.034.384-.078a1.78 1.78 0 00.314-.13c.114-.062.219-.14.323-.219a2.7 2.7 0 00.271-.28 2.63 2.63 0 00.482-1.035l.016-.063c.015-.099.023-.204.031-.299l.004-.042c0-.157-.018-.287-.044-.41a1.267 1.267 0 00-.183-.41.875.875 0 00-.201-.2.97.97 0 00-.375-.166 1.015 1.015 0 00-.454.035c-.149.052-.306.14-.437.279zm3.431 4.214h1.624l1.37-5.74h-1.614l-1.38 5.74zM26.22 6.9c0 .524.375.838.882.838.602 0 1.126-.532 1.126-1.134 0-.524-.375-.83-.882-.83-.602 0-1.126.524-1.126 1.126zm3.038.096l1.668-.244-.393 1.666h1.816l-.34 1.326h-1.764l-.498 2.016c-.043.192-.14.689-.043.88.13.271.454.34.733.34.367 0 .599-.07.94-.176l.046-.015.096 1.221c-.366.184-1.17.297-1.571.297-.62 0-1.51-.183-1.772-.838-.227-.567-.131-1.326 0-1.91l1.082-4.563zm5.197 4.735c.412.208.94.474.94.814 0 .445-.453.54-.986.54-.61.01-1.327-.244-1.615-.4l-.541 1.23c.716.357 1.31.488 2.113.488 1.178 0 2.549-.471 2.549-1.858 0-1.032-.794-1.451-1.408-1.776-.388-.205-.705-.372-.705-.632 0-.445.576-.445.89-.445.341 0 .987.157 1.275.349l.542-1.23c-.577-.28-1.127-.436-1.773-.436-1.24 0-2.497.41-2.497 1.858 0 .645.358.968.865 1.308.087.057.212.12.35.19zM8.688 9.257c.742-.035 1.676-.297 1.676-1.178 0-.933-1.178-1.03-1.868-1.03-.34 0-.734.044-.734.044V9.3c0-.028.224-.03.489-.034.143-.001.299-.003.437-.01zm-.882 1.125s.742-.043 1.275 0c.786.07 1.833.28 1.868 1.23.044.995-1.09 1.178-1.868 1.222-.533.034-1.275 0-1.275 0v-2.452z" fill="#F89C1C"/><path d="M57.387 14.308c-.567 0-1.222-.218-1.571-.69-.603-.802-.568-2.154-.201-3.035.576-1.379 1.781-2.207 3.291-2.207.129 0 .257.012.379.023.11.01.215.02.31.02l.586-2.451 1.668-.244-1.424 5.984c-.2.873-.096 1.5.149 2.356l-1.423.191c-.077-.153-.107-.255-.145-.384a7.495 7.495 0 00-.047-.156c-.463.349-.996.593-1.572.593zM59.3 9.745h-.541c-1.065 0-1.72 1.204-1.72 2.155 0 .593.14 1.134.838 1.134.384 0 .629-.183.882-.445 0-.218.104-.925.148-1.125l.393-1.719zM41.888 8.693l-.068.023-1.37 5.2h1.624l1.03-4.415c.072 0 .159-.011.25-.023h.001c.107-.014.221-.03.334-.03.637 0 .759.672.637 1.178l-.786 3.385h1.624l.734-3.088c.087-.375.148-.742.148-1.125.063-.022.129-.048.197-.075.209-.08.437-.17.641-.17.629 0 .75.655.637 1.178l-.785 3.376h1.615c.054-.224.13-.511.215-.83.267-1.011.62-2.351.667-3.087.078-1.239-.655-1.92-1.912-1.92-.69 0-1.135.193-1.72.542-.393-.393-.978-.541-1.52-.541-.926 0-1.373.149-2.193.422zm11.37-.422c-2 0-3.432 1.71-3.432 3.63 0 .889.577 1.735 1.37 2.11.63.297 2.332.21 2.952-.096l-.105-1.273c-.471.192-.864.244-1.37.244-.664 0-1.057-.131-1.18-.838.49 0 .978 0 1.424-.096 1.117-.244 2.156-.81 2.156-2.11 0-1.022-.864-1.571-1.816-1.571zm-1.764 2.748c.192-.768.655-1.422 1.519-1.422.393 0 .594.148.594.489 0 .48-.647.767-1.03.837a6.327 6.327 0 01-1.083.096zm9.865 3.14h1.624l1.371-5.74h-1.615l-1.38 5.74zm1.52-7.258c0 .524.384.838.89.838.602 0 1.126-.532 1.126-1.134 0-.524-.384-.83-.882-.83-.602 0-1.135.524-1.135 1.126zm6.827 4.807c-.218.89-.096 1.5.148 2.356l-1.423.191c-.083-.159-.116-.268-.162-.416a7.787 7.787 0 00-.038-.124c-.463.357-.926.54-1.52.54-2.077 0-2.374-2.224-1.763-3.777.646-1.658 1.833-2.25 3.58-2.25.663 0 1.3.191 1.911.435l-.733 3.045zM68.58 9.693c-.064 0-.14-.01-.223-.019-.1-.012-.21-.025-.319-.025-1.065 0-1.772 1.248-1.772 2.208 0 .593.14 1.125.838 1.125.384 0 .629-.183.882-.436 0-.227.079-.934.148-1.134l.446-1.72zM37.848 13.33c0 .523.384.829.882.829.603 0 1.135-.533 1.135-1.126 0-.523-.384-.837-.89-.837-.594 0-1.127.532-1.127 1.134z" fill="#2A609F"/><path d="M8.2.768c.837.096 8.686 1.475 8.686 11.333.053-.245.053-.541.053-.785V1.998c-2.803-.88-5.789-1.273-8.74-1.23z" fill="#fff" fill-opacity=".302"/></g><defs><clipPath id="clip0_2113_15303"><path fill="#fff" transform="translate(.027 .458)" d="M0 0h70.878v19.26H0z"/></clipPath></defs></svg>