<svg width="705" height="773" fill="none" xmlns="http://www.w3.org/2000/svg"><path d="M584.412 495.411c75.902 19.917 182.185-9.15 237.388-64.921 26.817-27.093 36.647-55.505 30.963-79.843l2.152 7.868c7.941 25.242-1.409 55.404-29.802 84.088-55.203 55.772-161.485 84.838-237.388 64.921-38.863-10.197-62.227-31.259-68.365-56.873l-2.329-8.518c7.393 23.982 30.351 43.561 67.381 53.278z" fill="url(#paint0_linear_2100_39554)"/><path d="M584.412 495.411c75.902 19.917 182.185-9.15 237.388-64.921 26.817-27.093 36.647-55.505 30.963-79.843l2.152 7.868c7.941 25.242-1.409 55.404-29.802 84.088-55.203 55.772-161.485 84.838-237.388 64.921-38.863-10.197-62.227-31.259-68.365-56.873l-2.329-8.518c7.393 23.982 30.351 43.561 67.381 53.278z" fill="url(#paint1_linear_2100_39554)"/><g filter="url(#filter0_b_2100_39554)"><path d="M821.778 430.408c-55.203 55.772-161.486 84.838-237.388 64.921-75.903-19.916-92.683-81.274-37.48-137.046 55.204-55.771 161.486-84.837 237.388-64.921 75.903 19.917 92.683 81.275 37.48 137.046z" fill="#96CDB9" fill-opacity=".3"/></g><mask id="a" style="mask-type:alpha" maskUnits="userSpaceOnUse" x="514" y="287" width="341" height="215"><path d="M821.778 430.41c-55.203 55.772-161.485 84.838-237.388 64.921-75.903-19.917-92.683-81.274-37.479-137.046 55.203-55.771 161.485-84.837 237.388-64.921 75.902 19.917 92.682 81.275 37.479 137.046z" fill="url(#paint2_linear_2100_39554)"/></mask><g filter="url(#filter1_f_2100_39554)" mask="url(#a)"><path d="M550.223 370.399c55.204-55.772 161.486-84.838 237.389-64.921 36.862 9.672 59.78 29.12 67.28 52.955l-2.146-7.846c-6.008-25.771-29.407-46.979-68.447-57.223-75.903-19.917-182.185 9.15-237.388 64.921-28.264 28.555-37.658 58.573-29.909 83.745l2.337 8.545c-5.852-24.412 3.945-52.959 30.884-80.176z" fill="url(#paint3_linear_2100_39554)" fill-opacity=".4"/></g><path fill-rule="evenodd" clip-rule="evenodd" d="M608.244 459.352c70.646-34.162 132.571-125.3 138.313-203.561 2.953-40.235-9.519-69.234-31.935-83.273l-9.793-6.654-.928 1.365c-20.101-7.536-45.973-5.257-74.861 8.712-70.646 34.162-132.571 125.3-138.314 203.561-2.348 32.002 5.061 56.896 19.471 72.808l-.933 1.374 10.026 6.813c21.306 15.509 52.764 16.355 88.954-1.145z" fill="url(#paint4_linear_2100_39554)"/><path d="M736.171 248.733c-5.743 78.262-67.668 169.399-138.314 203.561-70.645 34.162-123.26-1.587-117.517-79.849 5.743-78.262 67.668-169.399 138.313-203.561 70.646-34.163 123.261 1.587 117.518 79.849z" fill="url(#paint5_linear_2100_39554)"/><mask id="b" style="mask-type:alpha" maskUnits="userSpaceOnUse" x="479" y="155" width="258" height="311"><path d="M736.171 248.733c-5.743 78.262-67.668 169.399-138.314 203.561-70.645 34.162-123.26-1.587-117.517-79.849 5.743-78.262 67.668-169.399 138.313-203.561 70.646-34.163 123.261 1.587 117.518 79.849z" fill="url(#paint6_linear_2100_39554)"/></mask><g style="mix-blend-mode:multiply" opacity=".6" filter="url(#filter2_f_2100_39554)" mask="url(#b)"><path d="M701.205 279.837c-5.743 78.261-67.668 169.399-138.313 203.561-70.646 34.162-123.261-1.588-117.518-79.85 5.743-78.261 67.668-169.399 138.314-203.561 70.645-34.162 123.26 1.588 117.517 79.85z" fill="url(#paint7_linear_2100_39554)"/></g><path d="M536.957 409.759c52.266-58.533 74.73-166.404 50.176-240.936-11.928-36.206-32.757-57.885-57.017-63.896l7.986 1.664c26.091 4.41 48.698 26.459 61.326 64.792 24.554 74.532 2.09 182.403-50.176 240.936-26.761 29.97-56.146 41.195-81.748 35.009l-8.645-1.8c24.72 4.325 52.6-7.213 78.098-35.769z" fill="url(#paint8_linear_2100_39554)"/><path d="M536.957 409.759c52.266-58.533 74.73-166.404 50.176-240.936-11.928-36.206-32.757-57.885-57.017-63.896l7.986 1.664c26.091 4.41 48.698 26.459 61.326 64.792 24.554 74.532 2.09 182.403-50.176 240.936-26.761 29.97-56.146 41.195-81.748 35.009l-8.645-1.8c24.72 4.325 52.6-7.213 78.098-35.769z" fill="url(#paint9_linear_2100_39554)"/><g filter="url(#filter3_b_2100_39554)"><path d="M587.051 168.807c24.554 74.532 2.089 182.402-50.176 240.936-52.266 58.533-114.541 45.564-139.095-28.967-24.554-74.532-2.089-182.403 50.177-240.936 52.265-58.534 114.54-45.565 139.094 28.967z" fill="#96CDB9" fill-opacity=".3"/></g><mask id="c" style="mask-type:alpha" maskUnits="userSpaceOnUse" x="387" y="103" width="210" height="344"><path d="M587.052 168.807c24.554 74.532 2.089 182.402-50.176 240.936-52.266 58.533-114.541 45.564-139.095-28.967-24.554-74.532-2.089-182.403 50.177-240.936 52.265-58.534 114.54-45.565 139.094 28.967z" fill="url(#paint10_linear_2100_39554)"/></mask><g mask="url(#c)"><g style="mix-blend-mode:multiply" opacity=".2" filter="url(#filter4_f_2100_39554)"><path d="M579.979 266.012c-5.743 78.262-67.668 169.4-138.314 203.562-70.646 34.162-123.26-1.588-117.518-79.85 5.743-78.262 67.668-169.399 138.314-203.561 70.646-34.162 123.26 1.588 117.518 79.849z" fill="url(#paint11_linear_2100_39554)"/></g><g filter="url(#filter5_f_2100_39554)"><path d="M410.076 383.336c-24.554-74.532-2.09-182.403 50.176-240.936 25.383-28.428 53.128-39.99 77.765-35.826l-7.963-1.658c-25.683-6.373-55.214 4.817-82.096 34.923-52.266 58.534-74.731 166.405-50.177 240.937 12.572 38.159 35.031 60.181 60.972 64.731l8.673 1.806c-24.402-5.894-45.368-27.605-57.35-63.977z" fill="url(#paint12_linear_2100_39554)" fill-opacity=".4"/></g></g><path fill-rule="evenodd" clip-rule="evenodd" d="M478.974 329.452c14.965-77.032-20.915-181.211-80.141-232.691-30.446-26.465-61.135-33.85-85.804-24.314l-11.199 3.857.538 1.561c-18.076 11.58-31.75 33.662-37.869 65.162-14.965 77.032 20.915 181.211 80.14 232.691 24.218 21.051 48.59 30.03 69.963 28.024l.541 1.57 11.457-3.946c25.183-7.767 44.707-32.45 52.374-71.914z" fill="url(#paint13_linear_2100_39554)"/><path d="M386.958 100.851c59.226 51.48 95.106 155.659 80.141 232.691-14.965 77.032-75.109 97.746-134.335 46.266-59.225-51.48-95.105-155.66-80.14-232.691 14.965-77.032 75.109-97.746 134.334-46.266z" fill="url(#paint14_linear_2100_39554)"/><mask id="d" style="mask-type:alpha" maskUnits="userSpaceOnUse" x="249" y="72" width="222" height="337"><path d="M386.958 100.851c59.226 51.48 95.106 155.659 80.141 232.691-14.965 77.032-75.109 97.746-134.335 46.266-59.225-51.48-95.105-155.66-80.14-232.691 14.965-77.032 75.109-97.746 134.334-46.266z" fill="url(#paint15_linear_2100_39554)"/></mask><g style="mix-blend-mode:multiply" opacity=".69" filter="url(#filter6_f_2100_39554)" mask="url(#d)"><path d="M376.543 144.833c59.226 51.48 95.106 155.66 80.141 232.692-14.965 77.032-75.109 97.746-134.335 46.265-59.225-51.48-95.105-155.659-80.14-232.691 14.965-77.032 75.109-97.746 134.334-46.266z" fill="url(#paint16_linear_2100_39554)"/></g><path d="M367.756 374.635c-19.942-75.896-97.473-154.188-173.171-174.871-36.772-10.047-66.348-4.651-84.755 12.256l5.796-5.74c18.084-19.317 48.95-25.991 87.883-15.353 75.697 20.683 153.228 98.975 173.17 174.871 10.21 38.86 3.343 69.557-15.951 87.487l-6.275 6.214c17.256-18.222 23.031-47.838 13.303-84.864z" fill="url(#paint17_linear_2100_39554)"/><path d="M367.756 374.635c-19.942-75.896-97.473-154.188-173.171-174.871-36.772-10.047-66.348-4.651-84.755 12.256l5.796-5.74c18.084-19.317 48.95-25.991 87.883-15.353 75.697 20.683 153.228 98.975 173.17 174.871 10.21 38.86 3.343 69.557-15.951 87.487l-6.275 6.214c17.256-18.222 23.031-47.838 13.303-84.864z" fill="url(#paint18_linear_2100_39554)"/><g filter="url(#filter7_b_2100_39554)"><path d="M194.525 199.822c75.697 20.683 153.228 98.975 173.17 174.871 19.942 75.896-25.257 120.656-100.955 99.973-75.697-20.683-153.228-98.975-173.17-174.871-19.942-75.896 25.257-120.656 100.955-99.973z" fill="#96CDB9" fill-opacity=".3"/></g><mask id="e" style="mask-type:alpha" maskUnits="userSpaceOnUse" x="88" y="194" width="285" height="286"><path d="M194.525 199.822c75.698 20.683 153.229 98.975 173.17 174.871 19.942 75.896-25.257 120.656-100.954 99.973-75.698-20.683-153.228-98.975-173.17-174.871-19.942-75.896 25.257-120.656 100.954-99.973z" fill="url(#paint19_linear_2100_39554)"/></mask><g filter="url(#filter8_f_2100_39554)" mask="url(#e)"><path d="M275.664 465.829c-75.697-20.682-153.228-98.975-173.17-174.871-9.685-36.86-4.005-66.375 13.07-84.617l-5.779 5.723c-19.495 17.894-26.471 48.694-16.214 87.731 19.941 75.896 97.472 154.188 173.17 174.871 38.756 10.589 69.518 4.024 87.635-15.091l6.295-6.234c-18.388 17.09-48.066 22.582-85.007 12.488z" fill="url(#paint20_linear_2100_39554)" fill-opacity=".4"/></g><defs><linearGradient id="paint0_linear_2100_39554" x1="513.965" y1="431.034" x2="849.682" y2="339.222" gradientUnits="userSpaceOnUse"><stop stop-color="#FFAEDA"/><stop offset=".14" stop-color="#E3E3FF"/><stop offset=".301" stop-color="#EE6ED0"/><stop offset=".59" stop-color="#FFE4B7"/><stop offset=".818" stop-color="#EE6ED0"/><stop offset="1" stop-color="#E3E3FF"/></linearGradient><linearGradient id="paint1_linear_2100_39554" x1="513.965" y1="431.034" x2="849.682" y2="339.222" gradientUnits="userSpaceOnUse"><stop stop-color="#E3E3FF"/><stop offset=".126" stop-color="#C3C0FF"/><stop offset=".313" stop-color="#FFC6AE"/><stop offset=".516" stop-color="#EDEDFF"/><stop offset=".687" stop-color="#FFB3D8"/><stop offset=".883" stop-color="#C2BFFF"/><stop offset="1" stop-color="#E3E3FF"/></linearGradient><linearGradient id="paint2_linear_2100_39554" x1="650.891" y1="272.022" x2="710.846" y2="491.254" gradientUnits="userSpaceOnUse"><stop stop-color="#8EACE7"/><stop offset="1" stop-color="#3532B0"/></linearGradient><linearGradient id="paint3_linear_2100_39554" x1="486.946" y1="332.239" x2="822.663" y2="240.427" gradientUnits="userSpaceOnUse"><stop stop-color="#E3E3FF"/><stop offset=".126" stop-color="#C3C0FF"/><stop offset=".313" stop-color="#FFC6AE"/><stop offset=".516" stop-color="#EDEDFF"/><stop offset=".687" stop-color="#FFB3D8"/><stop offset=".883" stop-color="#C2BFFF"/><stop offset="1" stop-color="#E3E3FF"/></linearGradient><linearGradient id="paint4_linear_2100_39554" x1="1025.36" y1="-220.362" x2="421.594" y2="462.011" gradientUnits="userSpaceOnUse"><stop stop-color="#0D331B"/><stop offset="1" stop-color="#209364"/></linearGradient><linearGradient id="paint5_linear_2100_39554" x1="469.942" y1="514.15" x2="362.808" y2="292.602" gradientUnits="userSpaceOnUse"><stop stop-color="#074D33"/><stop offset="1" stop-color="#276E54"/></linearGradient><linearGradient id="paint6_linear_2100_39554" x1="469.942" y1="514.15" x2="362.808" y2="292.602" gradientUnits="userSpaceOnUse"><stop stop-color="#6BCFAA"/><stop offset="1" stop-color="#32896A"/></linearGradient><linearGradient id="paint7_linear_2100_39554" x1="407.914" y1="614.143" x2="646.092" y2="263.607" gradientUnits="userSpaceOnUse"><stop stop-color="#012517"/><stop offset="1" stop-color="#004230"/></linearGradient><linearGradient id="paint8_linear_2100_39554" x1="447.58" y1="443.209" x2="518.541" y2="102.474" gradientUnits="userSpaceOnUse"><stop stop-color="#FFAEDA"/><stop offset=".14" stop-color="#E3E3FF"/><stop offset=".301" stop-color="#EE6ED0"/><stop offset=".59" stop-color="#FFE4B7"/><stop offset=".818" stop-color="#EE6ED0"/><stop offset="1" stop-color="#E3E3FF"/></linearGradient><linearGradient id="paint9_linear_2100_39554" x1="447.58" y1="443.209" x2="518.541" y2="102.474" gradientUnits="userSpaceOnUse"><stop stop-color="#E3E3FF"/><stop offset=".126" stop-color="#C3C0FF"/><stop offset=".313" stop-color="#FFC6AE"/><stop offset=".516" stop-color="#EDEDFF"/><stop offset=".687" stop-color="#FFB3D8"/><stop offset=".883" stop-color="#C2BFFF"/><stop offset="1" stop-color="#E3E3FF"/></linearGradient><linearGradient id="paint10_linear_2100_39554" x1="368.263" y1="248.935" x2="590.771" y2="295.274" gradientUnits="userSpaceOnUse"><stop stop-color="#8EACE7"/><stop offset="1" stop-color="#3532B0"/></linearGradient><linearGradient id="paint11_linear_2100_39554" x1="286.687" y1="600.318" x2="524.865" y2="249.782" gradientUnits="userSpaceOnUse"><stop stop-color="#012517"/><stop offset="1" stop-color="#004230"/></linearGradient><linearGradient id="paint12_linear_2100_39554" x1="347.308" y1="422.328" x2="418.268" y2="81.593" gradientUnits="userSpaceOnUse"><stop stop-color="#E3E3FF"/><stop offset=".126" stop-color="#C3C0FF"/><stop offset=".313" stop-color="#FFC6AE"/><stop offset=".516" stop-color="#EDEDFF"/><stop offset=".687" stop-color="#FFB3D8"/><stop offset=".883" stop-color="#C2BFFF"/><stop offset="1" stop-color="#E3E3FF"/></linearGradient><linearGradient id="paint13_linear_2100_39554" x1="184.579" y1="-411.712" x2="369.292" y2="480.5" gradientUnits="userSpaceOnUse"><stop stop-color="#0D331B"/><stop offset="1" stop-color="#209364"/></linearGradient><linearGradient id="paint14_linear_2100_39554" x1="440.002" y1="473.021" x2="198.427" y2="426.089" gradientUnits="userSpaceOnUse"><stop stop-color="#074D33"/><stop offset="1" stop-color="#276E54"/></linearGradient><linearGradient id="paint15_linear_2100_39554" x1="440.002" y1="473.021" x2="198.427" y2="426.089" gradientUnits="userSpaceOnUse"><stop stop-color="#6BCFAA"/><stop offset="1" stop-color="#32896A"/></linearGradient><linearGradient id="paint16_linear_2100_39554" x1="468.536" y1="579.94" x2="330.533" y2="179.241" gradientUnits="userSpaceOnUse"><stop stop-color="#012517"/><stop offset="1" stop-color="#004230"/></linearGradient><linearGradient id="paint17_linear_2100_39554" x1="346.293" y1="467.621" x2="101.393" y2="220.316" gradientUnits="userSpaceOnUse"><stop stop-color="#FFAEDA"/><stop offset=".14" stop-color="#E3E3FF"/><stop offset=".301" stop-color="#EE6ED0"/><stop offset=".59" stop-color="#FFE4B7"/><stop offset=".818" stop-color="#EE6ED0"/><stop offset="1" stop-color="#E3E3FF"/></linearGradient><linearGradient id="paint18_linear_2100_39554" x1="346.293" y1="467.621" x2="101.393" y2="220.316" gradientUnits="userSpaceOnUse"><stop stop-color="#E3E3FF"/><stop offset=".126" stop-color="#C3C0FF"/><stop offset=".313" stop-color="#FFC6AE"/><stop offset=".516" stop-color="#EDEDFF"/><stop offset=".687" stop-color="#FFB3D8"/><stop offset=".883" stop-color="#C2BFFF"/><stop offset="1" stop-color="#E3E3FF"/></linearGradient><linearGradient id="paint19_linear_2100_39554" x1="140.522" y1="426.478" x2="302.019" y2="266.553" gradientUnits="userSpaceOnUse"><stop stop-color="#8EACE7"/><stop offset="1" stop-color="#3532B0"/></linearGradient><linearGradient id="paint20_linear_2100_39554" x1="273.514" y1="539.691" x2="28.614" y2="292.386" gradientUnits="userSpaceOnUse"><stop stop-color="#E3E3FF"/><stop offset=".126" stop-color="#C3C0FF"/><stop offset=".313" stop-color="#FFC6AE"/><stop offset=".516" stop-color="#EDEDFF"/><stop offset=".687" stop-color="#FFB3D8"/><stop offset=".883" stop-color="#C2BFFF"/><stop offset="1" stop-color="#E3E3FF"/></linearGradient><filter id="filter0_b_2100_39554" x="469.983" y="242.676" width="428.722" height="303.34" filterUnits="userSpaceOnUse" color-interpolation-filters="sRGB"><feFlood flood-opacity="0" result="BackgroundImageFix"/><feGaussianBlur in="BackgroundImageFix" stdDeviation="22.206"/><feComposite in2="SourceAlpha" operator="in" result="effect1_backgroundBlur_2100_39554"/><feBlend in="SourceGraphic" in2="effect1_backgroundBlur_2100_39554" result="shape"/></filter><filter id="filter1_f_2100_39554" x="509.953" y="282.648" width="349.38" height="172.369" filterUnits="userSpaceOnUse" color-interpolation-filters="sRGB"><feFlood flood-opacity="0" result="BackgroundImageFix"/><feBlend in="SourceGraphic" in2="BackgroundImageFix" result="shape"/><feGaussianBlur stdDeviation="2.221" result="effect1_foregroundBlur_2100_39554"/></filter><filter id="filter2_f_2100_39554" x="400.534" y="142.625" width="345.511" height="398.136" filterUnits="userSpaceOnUse" color-interpolation-filters="sRGB"><feFlood flood-opacity="0" result="BackgroundImageFix"/><feBlend in="SourceGraphic" in2="BackgroundImageFix" result="shape"/><feGaussianBlur stdDeviation="22.206" result="effect1_foregroundBlur_2100_39554"/></filter><filter id="filter3_b_2100_39554" x="343.421" y="58.778" width="297.988" height="432.025" filterUnits="userSpaceOnUse" color-interpolation-filters="sRGB"><feFlood flood-opacity="0" result="BackgroundImageFix"/><feGaussianBlur in="BackgroundImageFix" stdDeviation="22.206"/><feComposite in2="SourceAlpha" operator="in" result="effect1_backgroundBlur_2100_39554"/><feBlend in="SourceGraphic" in2="effect1_backgroundBlur_2100_39554" result="shape"/></filter><filter id="filter4_f_2100_39554" x="279.308" y="128.801" width="345.511" height="398.136" filterUnits="userSpaceOnUse" color-interpolation-filters="sRGB"><feFlood flood-opacity="0" result="BackgroundImageFix"/><feBlend in="SourceGraphic" in2="BackgroundImageFix" result="shape"/><feGaussianBlur stdDeviation="22.206" result="effect1_foregroundBlur_2100_39554"/></filter><filter id="filter5_f_2100_39554" x="383.392" y="98.748" width="159.066" height="353.006" filterUnits="userSpaceOnUse" color-interpolation-filters="sRGB"><feFlood flood-opacity="0" result="BackgroundImageFix"/><feBlend in="SourceGraphic" in2="BackgroundImageFix" result="shape"/><feGaussianBlur stdDeviation="2.221" result="effect1_foregroundBlur_2100_39554"/></filter><filter id="filter6_f_2100_39554" x="162.503" y="40.227" width="373.886" height="488.17" filterUnits="userSpaceOnUse" color-interpolation-filters="sRGB"><feFlood flood-opacity="0" result="BackgroundImageFix"/><feBlend in="SourceGraphic" in2="BackgroundImageFix" result="shape"/><feGaussianBlur stdDeviation="38.154" result="effect1_foregroundBlur_2100_39554"/></filter><filter id="filter7_b_2100_39554" x="44.448" y="150.364" width="372.369" height="373.76" filterUnits="userSpaceOnUse" color-interpolation-filters="sRGB"><feFlood flood-opacity="0" result="BackgroundImageFix"/><feGaussianBlur in="BackgroundImageFix" stdDeviation="22.206"/><feComposite in2="SourceAlpha" operator="in" result="effect1_backgroundBlur_2100_39554"/><feBlend in="SourceGraphic" in2="effect1_backgroundBlur_2100_39554" result="shape"/></filter><filter id="filter8_f_2100_39554" x="84.418" y="201.9" width="280.694" height="282.254" filterUnits="userSpaceOnUse" color-interpolation-filters="sRGB"><feFlood flood-opacity="0" result="BackgroundImageFix"/><feBlend in="SourceGraphic" in2="BackgroundImageFix" result="shape"/><feGaussianBlur stdDeviation="2.221" result="effect1_foregroundBlur_2100_39554"/></filter></defs></svg>