<svg width="69" height="18" fill="none" xmlns="http://www.w3.org/2000/svg"><g clip-path="url(#clip0_2113_15253)"><path d="M.976 3.34a.372.372 0 01.085-.261.322.322 0 01.25-.1H8.89a.344.344 0 01.263.1.407.407 0 01.09.274v1.938a.442.442 0 01-.09.257.328.328 0 01-.263.127H3.932V7.62h3.823a.388.388 0 01.242.07.27.27 0 01.094.235v1.668a.318.318 0 01-.327.314H3.94v2.008h5.14a.299.299 0 01.259.09.315.315 0 01.085.267v1.968a.206.206 0 01-.064.144c0 .144-.123.218-.31.218H1.31a.347.347 0 01-.246-.083.32.32 0 01-.09-.252V3.34zm9.216 11.077l.124-.24a3.13 3.13 0 01.148-.243l3.441-5.27-1.737-2.683-1.742-2.678a1.006 1.006 0 01-.072-.118.412.412 0 01-.034-.122c0-.043.038-.06.089-.06a.275.275 0 00.149-.036h2.659a.48.48 0 01.266.083c.08.053.142.129.18.218l1.873 2.883 1.895-2.879a.497.497 0 01.17-.212.48.48 0 01.254-.088h2.702a.552.552 0 01.128.026.077.077 0 01.05.074.313.313 0 01-.084.2l-3.496 5.392 3.589 5.488c.045.062.083.13.115.2a.29.29 0 01.038.152c0 .079-.047.118-.14.118H18.02a.393.393 0 01-.238-.079.53.53 0 01-.17-.213l-2.077-3.158-2.056 3.158a.53.53 0 01-.17.213.393.393 0 01-.238.079h-2.744a.172.172 0 01-.106-.035.118.118 0 01-.047-.1.13.13 0 01.017-.07zM22.449 3.323a.362.362 0 01.085-.244.318.318 0 01.25-.1h2.502c.077.001.153.02.221.057a.48.48 0 01.2.187 485.99 485.99 0 001.924 3.166l1.937 3.166v-6.28a.358.358 0 01.14-.213.314.314 0 01.213-.079H32.1a.417.417 0 01.267.092.303.303 0 01.107.252v10.989a.273.273 0 01-.094.23.391.391 0 01-.25.074h-2.456a.25.25 0 01-.178-.07 1.2 1.2 0 01-.157-.187l-2.013-3.41c-.663-1.123-1.336-2.26-2.018-3.41v6.733a.377.377 0 01-.077.257.364.364 0 01-.276.087h-2.17a.288.288 0 01-.255-.1.344.344 0 01-.081-.235V3.323zM57.83 8.812a6.006 6.006 0 01-.209 1.58 5.777 5.777 0 01-2.68 3.45 5.972 5.972 0 01-2.948.767h-3.768a.504.504 0 01-.246-.061c-.073-.044-.107-.131-.107-.27V3.341a.384.384 0 01.11-.28.324.324 0 01.264-.104h3.768a5.803 5.803 0 014.12 1.685c.354.35.661.745.914 1.177.255.439.454.91.59 1.402.136.518.2 1.053.191 1.59zm-6.997-3.027v6.032h.985l.336-.026c.37-.03.733-.127 1.07-.288.317-.156.605-.369.85-.627a2.86 2.86 0 00.582-.915c.144-.363.216-.753.213-1.145a2.984 2.984 0 00-.9-2.168 2.9 2.9 0 00-.965-.624 3.053 3.053 0 00-1.181-.226l-.99-.013zm8.99-2.445a.374.374 0 01.085-.26.325.325 0 01.25-.101h7.583a.326.326 0 01.26.1.39.39 0 01.093.275v1.938a.408.408 0 01-.094.257.32.32 0 01-.267.117H62.78v1.947h3.823c.085-.004.17.02.242.07a.27.27 0 01.093.235v1.677c0 .078-.03.153-.085.209a.296.296 0 01-.242.104h-3.823v2.008h5.14a.3.3 0 01.26.09.318.318 0 01.084.267v1.969a.208.208 0 01-.064.143c0 .144-.123.218-.314.218h-7.735a.339.339 0 01-.247-.083.32.32 0 01-.09-.252V3.34z" fill="#fff"/><path fill-rule="evenodd" clip-rule="evenodd" d="M44.145 4.052l-4.13 5.899-1.63-1.142c-.268-.188-.593-.03-.533.258l.87 4.23a.44.44 0 00.474.331l4.27-.628c.292-.043.328-.403.06-.59l-1.63-1.142 3.744-5.35a6.262 6.262 0 01-.416 6.5 6.257 6.257 0 01-8.716 1.537 6.262 6.262 0 01-1.538-8.72 6.257 6.257 0 019.175-1.183z" fill="#fff"/><path fill-rule="evenodd" clip-rule="evenodd" d="M41.868 4.352a.441.441 0 00-.474-.332l-4.27.628c-.291.043-.328.403-.06.59l1.63 1.142-3.948 5.642a6.625 6.625 0 001.57 1.758l4.258-6.083 1.63 1.142c.269.188.594.03.534-.258l-.87-4.23z" fill="#5493E3"/></g><defs><clipPath id="clip0_2113_15253"><path fill="#fff" transform="translate(.975 .107)" d="M0 0h67.29v17.439H0z"/></clipPath></defs></svg>