<svg width="411" height="1644" fill="none" xmlns="http://www.w3.org/2000/svg"><g filter="url(#filter0_f_2100_39466)"><path d="M-1069.5 1367.5c-200.47 28.14-245.56-297.46-402.85-462.899-41.3-43.437-835.87-72.843-997.38-146.465-91.64-41.774-6.49-369.315-35.83-461.072-10.54-13.723-15.57-21.736-15.57-21.736 7.09 3.423 12.12 10.951 15.57 21.736 64.82 84.369 338.35 384.555 936.76 365.258 695.741-22.437 1417.013-371.024 1417.013-371.024l206.814 31.768C199.28 543.956 255.44 848.883-705.95 879.886c-188.39 6.075-163.084 459.484-363.55 487.614z" fill="#26BB76" fill-opacity=".37"/></g><defs><filter id="filter0_f_2100_39466" x="-2795.57" y=".888" width="3206.1" height="1642.77" filterUnits="userSpaceOnUse" color-interpolation-filters="sRGB"><feFlood flood-opacity="0" result="BackgroundImageFix"/><feBlend in="SourceGraphic" in2="BackgroundImageFix" result="shape"/><feGaussianBlur stdDeviation="137.22" result="effect1_foregroundBlur_2100_39466"/></filter></defs></svg>