<svg width="67" height="20" fill="none" xmlns="http://www.w3.org/2000/svg"><g clip-path="url(#clip0_2113_15282)"><path fill-rule="evenodd" clip-rule="evenodd" d="M16.869 6.284a3.739 3.739 0 001.954-.409 3.716 3.716 0 001.46-1.355 3.423 3.423 0 00.622-2.236c-.05-.451-.198-.608-.444-.47a4.94 4.94 0 01-2.015.605c-.754.098-1.516.133-2.276.103a89.92 89.92 0 01-3.046-.236 89.58 89.58 0 00-2.852-.226 19.32 19.32 0 00-1.062-.051c-.328-.006-.882.015-1.661.062-.702.037-1.399.13-2.085.276-.676.16-1.33.398-1.952.708a4.914 4.914 0 00-1.654 1.24A4.002 4.002 0 00.822 6.806a2.532 2.532 0 00.945 2.287 3.032 3.032 0 001.906.636 4.533 4.533 0 001.862-.349c.448-.185.859-.45 1.213-.78a2.01 2.01 0 00.444-.584.292.292 0 000-.307 2.497 2.497 0 00-.3-.257 1.09 1.09 0 01-.32-.369.92.92 0 01-.134-.687c.04-.332.144-.652.308-.944.208-.355.518-.64.891-.82a2.87 2.87 0 011.511-.3h.02l-2.52 7.858c-.488 1.518-.44 2.807.144 3.867s1.706 1.63 3.366 1.712a6.8 6.8 0 002.41-.307 6.308 6.308 0 001.953-.975c.465-.349.896-.74 1.288-1.169.284-.304.524-.645.713-1.015a.624.624 0 00.112-.523c-.055-.103-.198-.093-.429.03-.762.4-1.592.658-2.448.76a3.386 3.386 0 01-2.162-.329c-.562-.328-.727-.875-.495-1.64.003-.014.16-.507.473-1.478h3.401a.126.126 0 00.144-.102l.668-2.051.008-.043-.091-.062H12.3c.09-.246.265-.776.526-1.59l.55-1.712c1.127.391 2.301.634 3.492.72zm7.631 5.087a.069.069 0 00-.037-.075.069.069 0 00-.029-.007H18.31a.146.146 0 00-.144.103l-.57 1.764.085.082h6.143a.08.08 0 00.095-.061l.581-1.806zm17.006 1.908l1.015-3.2c.332-.997.322-1.811-.03-2.441a1.816 1.816 0 00-1.722-.943 4.403 4.403 0 00-2.043.595 6.81 6.81 0 00-2.102 1.846 2.32 2.32 0 00-.425-1.784 1.87 1.87 0 00-1.532-.657 4.409 4.409 0 00-2.008.574 6.716 6.716 0 00-2.08 1.785 2.13 2.13 0 00-.414-1.733 2.063 2.063 0 00-1.64-.626 3.745 3.745 0 00-1.718.462c-.49.218-.912.561-1.225.995a.173.173 0 00.02.266c.09.069.202.16.338.277a1.057 1.057 0 01.197.79 7.062 7.062 0 01-.359 1.784c-.293.944-.985 2.975-2.073 6.093l-.008.043.047.059h4.142a.357.357 0 00.082-.051.123.123 0 00.043-.072l1.752-5.498c.184-.573.47-1.108.844-1.58.461-.534.864-.767 1.208-.698.385.068.459.465.221 1.19a37.822 37.822 0 01-.448 1.456 279.52 279.52 0 00-1.622 5.149.026.026 0 00-.008.042l.052.062h4.146a.352.352 0 00.082-.051.125.125 0 00.043-.072l1.473-5.128.113-.37a4.362 4.362 0 01.844-1.58c.461-.534.864-.766 1.208-.698.385.069.459.465.221 1.19l-1.27 3.98c-.294.943-.238 1.698.167 2.264a2.151 2.151 0 001.885.852 3.745 3.745 0 001.718-.462 3.096 3.096 0 001.22-.974.17.17 0 00.026-.233.934.934 0 00-.274-.185.742.742 0 01-.32-.369c-.1-.261-.14-.541-.118-.82a5.91 5.91 0 01.33-1.529h.002zm12.883-.574c.493-1.546.37-2.893-.367-4.042-.739-1.148-1.921-1.784-3.548-1.907a7.018 7.018 0 00-4.578 1.333 7.248 7.248 0 00-2.894 3.795c-.494 1.546-.368 2.893.377 4.041.745 1.15 1.93 1.785 3.555 1.908a6.986 6.986 0 004.598-1.324 7.281 7.281 0 002.855-3.804h.002zm-7.38-.534a7.222 7.222 0 011.17-2.297 1.82 1.82 0 011.561-.82 1.013 1.013 0 01.969 1.005 5.36 5.36 0 01-.326 2.359 7.196 7.196 0 01-1.162 2.318 1.791 1.791 0 01-1.546.8 1.02 1.02 0 01-.689-.315 1.01 1.01 0 01-.278-.7 5.51 5.51 0 01.3-2.35h.001zm18.512 1.108c.178-.56.376-1.173.594-1.837.219-.665.365-1.12.441-1.364.319-.998.302-1.811-.05-2.441a1.817 1.817 0 00-1.722-.944c-.73.03-1.444.23-2.083.585a6.76 6.76 0 00-2.158 1.815 2.106 2.106 0 00-.41-1.752 2.077 2.077 0 00-1.658-.646 3.744 3.744 0 00-1.718.461 3.037 3.037 0 00-1.224.995.175.175 0 00-.013.226c.07.068.148.127.234.174a.72.72 0 01.268.37c.083.264.112.543.086.82a6.322 6.322 0 01-.34 1.528c-.307.944-1.012 2.974-2.114 6.092-.004.011-.005.023-.004.034a.079.079 0 00.035.057c.009.006.02.01.031.012h4.123a.145.145 0 00.129-.123l1.751-5.498a4.426 4.426 0 01.881-1.559c.491-.547.93-.786 1.315-.718.399.069.487.465.263 1.19l-1.27 3.98c-.308.943-.26 1.698.146 2.265a2.153 2.153 0 001.885.85 3.745 3.745 0 001.717-.46c.487-.22.913-.555 1.242-.975a.18.18 0 00.004-.234.936.936 0 00-.274-.185.744.744 0 01-.32-.369 1.87 1.87 0 01-.118-.82 5.902 5.902 0 01.329-1.529h.002z" fill="#fff"/></g><defs><clipPath id="clip0_2113_15282"><path fill="#fff" transform="translate(.805 .157)" d="M0 0h65.978v19.311H0z"/></clipPath></defs></svg>