<svg width="75" height="20" fill="none" xmlns="http://www.w3.org/2000/svg"><g clip-path="url(#clip0_2113_15329)"><path d="M.141 4.31A3.857 3.857 0 014.003.458h66.62a3.857 3.857 0 013.863 3.852v11.556a3.857 3.857 0 01-3.862 3.852H4.004A3.857 3.857 0 01.14 15.866V4.31z" fill="#2A609F"/><path fill-rule="evenodd" clip-rule="evenodd" d="M14.68 15.618l-1.657-2.68a.885.885 0 00-.21-.234.856.856 0 00-.796-.144l-.37-.598-.12-.195-.153-.246-.176-.285c.137-.118.266-.242.388-.372 1.542-1.654 1.848-4.248.6-6.268a5.052 5.052 0 00-.596-.782 4.874 4.874 0 00-1.243-.968 4.773 4.773 0 00-2.295-.582 4.726 4.726 0 00-2.614.804c-1.454.97-2.246 2.607-2.245 4.278 0 .937.251 1.885.775 2.732 1.035 1.677 2.862 2.505 4.648 2.3a4.705 4.705 0 001.465-.415l.192.31.634 1.027a.944.944 0 00-.087 1.108l1.906 3.084a.873.873 0 00.744.421.857.857 0 00.476-.145l.062-.042.655-.437a.938.938 0 00.266-1.267l-.25-.404zM4.56 9.683C3.352 7.73 3.842 5.148 5.638 3.811a4.037 4.037 0 012.97-.78l.05.007.035.006a4.14 4.14 0 012.722 1.683c.058.081.115.164.169.25l.005.007.004.007a4.471 4.471 0 01.647 2.716c-.108 1.295-.77 2.526-1.905 3.284a4.072 4.072 0 01-1.851.667 4.078 4.078 0 01-2.85-.797A4.259 4.259 0 014.56 9.683zm4.78-5.707c.416.26.832.519 1.245.781.063.04.08.101.04.164a84.488 84.488 0 01-1.353 2.076c-.031.047-.07.085-.132.073-.055-.01-.085-.047-.099-.114-.018-.089-.04-.181-.061-.275a6.656 6.656 0 01-.118-.587c-.007-.048-.034-.067-.077-.065-1.626.092-3.508 1.018-3.637 2.909a.164.164 0 01-.05.11.136.136 0 01-.14.033c-.07-.024-.09-.092-.106-.155C4.224 6.488 6.1 4.428 8.419 4.298c.053-.003.06-.028.05-.071-.02-.097-.04-.194-.062-.291-.024-.113-.05-.226-.072-.339-.012-.057-.005-.115.045-.147.045-.03.093-.017.14.012l.82.514zm-2.566 6.832c-.424-.265-.848-.53-1.27-.798-.063-.039-.08-.1-.04-.163.439-.695.895-1.395 1.354-2.076.03-.047.07-.085.131-.073.055.01.084.046.098.114.02.09.04.183.063.277.045.196.092.398.117.584.007.049.034.068.077.066 1.626-.092 3.507-1.018 3.637-2.909a.164.164 0 01.05-.11.135.135 0 01.14-.032c.07.023.09.09.106.154.628 2.438-1.248 4.498-3.567 4.628-.053.002-.06.028-.05.071.019.096.04.19.06.285.026.115.05.23.074.345.012.056.005.115-.045.148-.045.028-.093.016-.14-.014l-.794-.496zM47.762 6.29H44.71v6.918h3.053v-1.292h-1.75v-1.571h1.53V9.053h-1.53V7.582h1.75V6.29zm-29.66 0h-3.053v6.918h3.053v-1.292H16.35v-1.571h1.531V9.053h-1.53V7.582h1.75V6.29zm1.875 0h-1.521l1.281 3.31-1.377 3.608h1.511l.584-2.028h.038l.584 2.028h1.53L21.193 9.6l1.32-3.31h-1.531L20.522 8h-.057l-.488-1.71zm3.516.437c-.284.332-.426.772-.426 1.322v3.469c0 .584.137 1.02.411 1.312.275.292.712.438 1.312.438.541 0 .956-.167 1.243-.502.287-.335.434-.777.44-1.327l-1.285-.18c-.007.24-.05.418-.13.537-.078.12-.182.18-.309.18-.165 0-.27-.044-.314-.13a.575.575 0 01-.067-.268V8.049c0-.046.007-.1.02-.164a.553.553 0 01.065-.174.424.424 0 01.128-.134.373.373 0 01.213-.055c.133 0 .238.068.317.204.079.136.122.307.128.512l1.254-.229a.523.523 0 00.009-.094V7.82c0-.47-.139-.853-.416-1.148-.278-.295-.707-.442-1.287-.442-.587 0-1.022.166-1.306.497zm5.018-.437h-1.3v6.918h1.3v-2.863h.832v2.863h1.302V6.29h-1.302v2.743h-.832V6.29zm5.54 0h-1.588L31.2 13.208h1.378l.2-1.351h.976l.201 1.35h1.369L34.05 6.29zm-.756 1.789l.144 1.402.124 1.103h-.603l.135-1.103.143-1.402h.057zm3.712-1.79H35.87v6.919h1.301v-3.33h.048l.457 1.312.782 2.018h1.105V6.29H38.29v3.27h-.047l-.45-1.262-.785-2.008zm3.947.438c-.296.332-.445.772-.445 1.322v3.469c0 .584.138 1.02.412 1.312.274.292.71.438 1.31.438.536 0 .95-.148 1.244-.443.294-.294.44-.727.44-1.297V9.351h-1.74v1.183h.44v1.064a.343.343 0 01-.122.273.46.46 0 01-.308.104c-.163 0-.265-.043-.31-.129a.586.586 0 01-.064-.268V8.049c0-.046.005-.1.018-.164a.548.548 0 01.066-.174.42.42 0 01.126-.134.366.366 0 01.21-.055c.132 0 .236.068.315.204.077.136.12.307.126.512l1.263-.229a2.074 2.074 0 00-.062-.705 1.399 1.399 0 00-.307-.567 1.464 1.464 0 00-.545-.373c-.22-.09-.48-.134-.78-.134-.56 0-.99.166-1.287.497zm8.871-2.765h19.623c1.127 0 2.04.949 2.04 2.12v7.333c0 1.171-.913 2.12-2.04 2.12H49.825V3.962z" fill="#fff"/><path d="M53.042 8.437a.468.468 0 00.095.208.89.89 0 00.224.194c.098.063.236.13.414.204a3.1 3.1 0 01.724.397c.178.14.313.292.405.458.092.165.152.352.18.561.03.209.044.446.044.711 0 .318-.027.606-.082.865a1.733 1.733 0 01-.277.66c-.13.183-.308.324-.531.423-.223.1-.504.15-.842.15-.306 0-.57-.048-.79-.141a1.388 1.388 0 01-.535-.386 1.56 1.56 0 01-.302-.57 2.45 2.45 0 01-.096-.693l1.312-.259c.012.253.048.441.109.567.059.126.171.189.335.189a.33.33 0 00.223-.07.452.452 0 00.123-.178.962.962 0 00.056-.258c.01-.099.014-.199.014-.298 0-.138-.01-.254-.028-.347a.614.614 0 00-.1-.238.641.641 0 00-.197-.174 2.772 2.772 0 00-.306-.153 3.827 3.827 0 01-.785-.433 1.8 1.8 0 01-.454-.476 1.45 1.45 0 01-.206-.536 3.756 3.756 0 01-.047-.62c0-.284.031-.547.095-.788a1.64 1.64 0 01.302-.62 1.4 1.4 0 01.535-.407c.22-.1.487-.15.799-.15.332 0 .606.055.822.165.218.109.389.248.513.417.125.169.212.356.263.562.052.205.077.404.077.596l-1.282.288c0-.1-.005-.192-.015-.278a.758.758 0 00-.061-.233.402.402 0 00-.128-.164.362.362 0 00-.222-.06.308.308 0 00-.207.064.446.446 0 00-.12.16.712.712 0 00-.056.213 1.837 1.837 0 00.005.477zm16.026 3.08c0 .597-.143 1.038-.43 1.323-.287.285-.711.427-1.273.427-1.13 0-1.694-.582-1.694-1.75V7.97c0-.596.15-1.035.45-1.317.3-.282.715-.422 1.244-.422.58 0 1.01.14 1.287.422.277.282.416.72.416 1.317v3.549zm-1.703-4.025a.408.408 0 00-.278.1c-.076.066-.114.175-.114.327v3.659c0 .159.038.27.114.333.077.063.17.094.278.094.108 0 .2-.032.272-.094.074-.064.11-.175.11-.333V7.919c0-.152-.036-.261-.11-.327a.39.39 0 00-.272-.1zm-2.554 5.715h-1.302v-3.23h-.038l-.314 1.073-.257.806h-.868l-.275-.885-.306-1.024h-.047v3.26h-1.301V6.29h1.215l.66 1.849.45 1.372h.058l.459-1.402.65-1.819h1.216v6.918zm-5.56-1.69c0 .597-.143 1.038-.43 1.323-.287.285-.71.427-1.273.427-1.13 0-1.693-.582-1.693-1.75V6.3h1.301v5.249c0 .159.039.27.115.333a.421.421 0 00.277.094c.109 0 .2-.031.273-.094.073-.063.11-.174.11-.333v-5.25h1.32v5.219z" fill="#2A609F"/></g><defs><clipPath id="clip0_2113_15329"><path fill="#fff" transform="translate(.141 .458)" d="M0 0h74.345v19.26H0z"/></clipPath></defs></svg>