<svg width="375" height="525" fill="none" xmlns="http://www.w3.org/2000/svg"><path d="M244.846 360.125c43.615 9.64 103.419-9.257 133.577-42.207 14.65-16.006 19.609-32.385 15.835-46.101l1.399 4.427c5.078 14.18.43 31.544-15.08 48.491-30.158 32.949-89.962 51.846-133.577 42.206-22.331-4.935-36.088-16.395-40.149-30.827l-1.515-4.793c4.739 13.476 18.233 24.102 39.51 28.804z" fill="url(#paint0_linear_2100_41871)"/><path d="M244.846 360.125c43.615 9.64 103.419-9.257 133.577-42.207 14.65-16.006 19.609-32.385 15.835-46.101l1.399 4.427c5.078 14.18.43 31.544-15.08 48.491-30.158 32.949-89.962 51.846-133.577 42.206-22.331-4.935-36.088-16.395-40.149-30.827l-1.515-4.793c4.739 13.476 18.233 24.102 39.51 28.804z" fill="url(#paint1_linear_2100_41871)"/><g filter="url(#filter0_b_2100_41871)"><path d="M378.419 317.872c-30.157 32.95-89.961 51.846-133.576 42.207-43.615-9.64-54.524-44.165-24.366-77.115 30.157-32.95 89.961-51.846 133.576-42.207 43.615 9.64 54.524 44.165 24.366 77.115z" fill="#96CDB9" fill-opacity=".3"/></g><mask id="a" style="mask-type:alpha" maskUnits="userSpaceOnUse" x="203" y="238" width="193" height="125"><path d="M378.435 317.874c-30.158 32.95-89.962 51.846-133.576 42.207-43.615-9.64-54.524-44.165-24.367-77.115 30.158-32.95 89.962-51.846 133.577-42.207 43.614 9.64 54.523 44.165 24.366 77.115z" fill="url(#paint2_linear_2100_41871)"/></mask><g filter="url(#filter1_f_2100_41871)" mask="url(#a)"><path d="M222.646 289.782c30.157-32.95 89.962-51.846 133.576-42.207 21.182 4.682 34.65 15.233 39.446 28.623l-1.395-4.415c-3.991-14.524-17.771-26.066-40.204-31.024-43.615-9.639-103.419 9.257-133.577 42.207-15.44 16.87-20.115 34.153-15.148 48.297l1.519 4.809c-3.871-13.755 1.066-30.21 15.783-46.29z" fill="url(#paint3_linear_2100_41871)" fill-opacity=".4"/></g><path fill-rule="evenodd" clip-rule="evenodd" d="M257.621 339.074c39.422-21.003 72.616-74.217 74.141-118.858.785-22.962-6.962-39.183-20.036-46.665l-5.702-3.556-.497.797c-11.6-3.838-26.264-1.966-42.383 6.622-39.421 21.002-72.615 74.217-74.14 118.858-.624 18.252 4.143 32.246 12.692 40.976l-.501.803 5.88 3.668c12.462 8.332 30.364 8.107 50.546-2.645z" fill="url(#paint4_linear_2100_41871)"/><path d="M325.707 216.437c-1.525 44.642-34.719 97.856-74.141 118.858-39.421 21.003-70.143 1.84-68.617-42.802 1.525-44.641 34.719-97.855 74.14-118.858 39.422-21.002 70.143-1.839 68.618 42.802z" fill="url(#paint5_linear_2100_41871)"/><mask id="b" style="mask-type:alpha" maskUnits="userSpaceOnUse" x="182" y="165" width="144" height="179"><path d="M325.707 216.437c-1.525 44.642-34.719 97.856-74.141 118.858-39.421 21.003-70.143 1.84-68.617-42.802 1.525-44.641 34.719-97.855 74.14-118.858 39.422-21.002 70.143-1.839 68.618 42.802z" fill="url(#paint6_linear_2100_41871)"/></mask><g style="mix-blend-mode:multiply" opacity=".6" filter="url(#filter2_f_2100_41871)" mask="url(#b)"><path d="M306.504 234.904c-1.525 44.641-34.719 97.856-74.141 118.858-39.422 21.002-70.143 1.839-68.618-42.802 1.526-44.641 34.719-97.855 74.141-118.858 39.422-21.002 70.143-1.839 68.618 42.802z" fill="url(#paint7_linear_2100_41871)"/></g><path d="M215.979 312.456c28.425-34.455 38.803-96.309 23.179-138.155-7.59-20.328-19.92-32.194-33.852-35.073l4.579.768c14.939 1.928 28.287 13.966 36.323 35.488 15.624 41.846 5.246 103.7-23.179 138.155-14.554 17.642-31.018 24.68-45.717 21.731l-4.958-.832c14.157 1.91 29.758-5.272 43.625-22.082z" fill="url(#paint8_linear_2100_41871)"/><path d="M215.979 312.456c28.425-34.455 38.803-96.309 23.179-138.155-7.59-20.328-19.92-32.194-33.852-35.073l4.579.768c14.939 1.928 28.287 13.966 36.323 35.488 15.624 41.846 5.246 103.7-23.179 138.155-14.554 17.642-31.018 24.68-45.717 21.731l-4.958-.832c14.157 1.91 29.758-5.272 43.625-22.082z" fill="url(#paint9_linear_2100_41871)"/><g filter="url(#filter3_b_2100_41871)"><path d="M239.107 174.295c15.624 41.846 5.247 103.7-23.179 138.155-28.425 34.455-64.134 28.464-79.758-13.381-15.623-41.846-5.246-103.7 23.179-138.155 28.426-34.455 64.134-28.464 79.758 13.381z" fill="#96CDB9" fill-opacity=".3"/></g><mask id="c" style="mask-type:alpha" maskUnits="userSpaceOnUse" x="128" y="138" width="119" height="197"><path d="M239.107 174.295c15.624 41.846 5.247 103.7-23.179 138.155-28.425 34.455-64.134 28.464-79.758-13.381-15.623-41.846-5.246-103.7 23.179-138.155 28.426-34.455 64.134-28.464 79.758 13.381z" fill="url(#paint10_linear_2100_41871)"/></mask><g mask="url(#c)"><g style="mix-blend-mode:multiply" opacity=".2" filter="url(#filter4_f_2100_41871)"><path d="M237.246 229.739c-1.525 44.641-34.719 97.856-74.14 118.858-39.422 21.002-70.143 1.839-68.618-42.802 1.525-44.641 34.719-97.856 74.141-118.858 39.421-21.002 70.143-1.839 68.617 42.802z" fill="url(#paint11_linear_2100_41871)"/></g><g filter="url(#filter5_f_2100_41871)"><path d="M143.22 300.251c-15.624-41.845-5.246-103.699 23.179-138.154 13.805-16.734 29.328-23.928 43.434-22.107l-4.566-.766c-14.75-3.054-31.297 3.968-45.918 21.69-28.425 34.455-38.802 96.309-23.179 138.155 8 21.424 21.264 33.45 36.12 35.461l4.973.834c-14.01-2.809-26.418-14.692-34.043-35.113z" fill="url(#paint12_linear_2100_41871)" fill-opacity=".4"/></g></g><path fill-rule="evenodd" clip-rule="evenodd" d="M181.195 268.068c6.798-44.147-15.927-102.604-50.759-130.567-17.941-14.403-35.595-17.907-49.426-11.884l-6.201 2.41.34.873c-10.024 6.989-17.31 19.853-20.09 37.905-6.798 44.147 15.928 102.603 50.759 130.566 14.243 11.435 28.305 16 40.416 14.383l.344.884 6.534-2.54c14.097-5.013 24.609-19.47 28.083-42.03z" fill="url(#paint13_linear_2100_41871)"/><path d="M123.779 140.094c34.832 27.963 57.557 86.42 50.759 130.567-6.798 44.146-40.545 57.266-75.377 29.303-34.831-27.963-57.557-86.419-50.759-130.566 6.798-44.147 40.546-57.267 75.377-29.304z" fill="url(#paint14_linear_2100_41871)"/><mask id="d" style="mask-type:alpha" maskUnits="userSpaceOnUse" x="47" y="125" width="129" height="190"><path d="M123.779 140.094c34.832 27.963 57.557 86.42 50.759 130.567-6.798 44.146-40.545 57.266-75.377 29.303-34.831-27.963-57.557-86.419-50.759-130.566 6.798-44.147 40.546-57.267 75.377-29.304z" fill="url(#paint15_linear_2100_41871)"/></mask><g style="mix-blend-mode:multiply" opacity=".69" filter="url(#filter6_f_2100_41871)" mask="url(#d)"><path d="M118.826 165.342c34.831 27.963 57.557 86.42 50.759 130.567-6.798 44.146-40.546 57.266-75.377 29.303-34.831-27.963-57.557-86.419-50.759-130.566 6.798-44.147 40.546-57.267 75.377-29.304z" fill="url(#paint16_linear_2100_41871)"/></g><path d="M118.963 296.245c-13.031-42.724-58.87-85.53-102.386-95.61-21.139-4.897-37.84-1.17-47.934 8.856l3.169-3.393c9.856-11.39 27.263-15.872 49.644-10.688 43.515 10.08 89.354 52.886 102.385 95.61 6.672 21.875 3.45 39.488-7.126 50.115l-3.43 3.674c9.409-10.748 12.035-27.721 5.678-48.564z" fill="url(#paint17_linear_2100_41871)"/><path d="M118.963 296.245c-13.031-42.724-58.87-85.53-102.386-95.61-21.139-4.897-37.84-1.17-47.934 8.856l3.169-3.393c9.856-11.39 27.263-15.872 49.644-10.688 43.515 10.08 89.354 52.886 102.385 95.61 6.672 21.875 3.45 39.488-7.126 50.115l-3.43 3.674c9.409-10.748 12.035-27.721 5.678-48.564z" fill="url(#paint18_linear_2100_41871)"/><g filter="url(#filter7_b_2100_41871)"><path d="M16.545 200.673c43.515 10.079 89.355 52.885 102.386 95.61 13.031 42.724-11.681 69.187-55.196 59.107-43.515-10.079-89.355-52.885-102.386-95.609-13.03-42.725 11.681-69.188 55.196-59.108z" fill="#96CDB9" fill-opacity=".3"/></g><mask id="e" style="mask-type:alpha" maskUnits="userSpaceOnUse" x="-43" y="198" width="166" height="160"><path d="M16.545 200.673c43.515 10.079 89.355 52.885 102.386 95.61 13.031 42.724-11.681 69.187-55.196 59.107-43.515-10.079-89.355-52.885-102.386-95.609-13.03-42.725 11.681-69.188 55.196-59.108z" fill="url(#paint19_linear_2100_41871)"/></mask><g filter="url(#filter8_f_2100_41871)" mask="url(#e)"><path d="M68.613 350.166c-43.515-10.08-89.354-52.886-102.385-95.61-6.329-20.749-3.755-37.664 5.551-48.419l-3.16 3.384c-10.69 10.611-13.972 28.285-7.27 50.26 13.031 42.724 58.87 85.53 102.386 95.609 22.279 5.161 39.629.743 49.509-10.533l3.441-3.685c-10.078 10.129-26.836 13.913-48.072 8.994z" fill="url(#paint20_linear_2100_41871)" fill-opacity=".4"/></g><defs><linearGradient id="paint0_linear_2100_41871" x1="203.346" y1="325.077" x2="392.251" y2="265.387" gradientUnits="userSpaceOnUse"><stop stop-color="#FFAEDA"/><stop offset=".14" stop-color="#E3E3FF"/><stop offset=".301" stop-color="#EE6ED0"/><stop offset=".59" stop-color="#FFE4B7"/><stop offset=".818" stop-color="#EE6ED0"/><stop offset="1" stop-color="#E3E3FF"/></linearGradient><linearGradient id="paint1_linear_2100_41871" x1="203.346" y1="325.077" x2="392.251" y2="265.387" gradientUnits="userSpaceOnUse"><stop stop-color="#E3E3FF"/><stop offset=".126" stop-color="#C3C0FF"/><stop offset=".313" stop-color="#FFC6AE"/><stop offset=".516" stop-color="#EDEDFF"/><stop offset=".687" stop-color="#FFB3D8"/><stop offset=".883" stop-color="#C2BFFF"/><stop offset="1" stop-color="#E3E3FF"/></linearGradient><linearGradient id="paint2_linear_2100_41871" x1="277.715" y1="231.588" x2="316.693" y2="354.948" gradientUnits="userSpaceOnUse"><stop stop-color="#8EACE7"/><stop offset="1" stop-color="#3532B0"/></linearGradient><linearGradient id="paint3_linear_2100_41871" x1="185.806" y1="269.486" x2="374.712" y2="209.796" gradientUnits="userSpaceOnUse"><stop stop-color="#E3E3FF"/><stop offset=".126" stop-color="#C3C0FF"/><stop offset=".313" stop-color="#FFC6AE"/><stop offset=".516" stop-color="#EDEDFF"/><stop offset=".687" stop-color="#FFB3D8"/><stop offset=".883" stop-color="#C2BFFF"/><stop offset="1" stop-color="#E3E3FF"/></linearGradient><linearGradient id="paint4_linear_2100_41871" x1="479.743" y1="-56.811" x2="151.518" y2="344.739" gradientUnits="userSpaceOnUse"><stop stop-color="#0D331B"/><stop offset="1" stop-color="#209364"/></linearGradient><linearGradient id="paint5_linear_2100_41871" x1="180.187" y1="373.323" x2="114.323" y2="249.696" gradientUnits="userSpaceOnUse"><stop stop-color="#074D33"/><stop offset="1" stop-color="#276E54"/></linearGradient><linearGradient id="paint6_linear_2100_41871" x1="180.187" y1="373.323" x2="114.323" y2="249.696" gradientUnits="userSpaceOnUse"><stop stop-color="#6BCFAA"/><stop offset="1" stop-color="#32896A"/></linearGradient><linearGradient id="paint7_linear_2100_41871" x1="147.124" y1="431.575" x2="274.796" y2="226.899" gradientUnits="userSpaceOnUse"><stop stop-color="#012517"/><stop offset="1" stop-color="#004230"/></linearGradient><linearGradient id="paint8_linear_2100_41871" x1="165.888" y1="333.47" x2="198.668" y2="138.09" gradientUnits="userSpaceOnUse"><stop stop-color="#FFAEDA"/><stop offset=".14" stop-color="#E3E3FF"/><stop offset=".301" stop-color="#EE6ED0"/><stop offset=".59" stop-color="#FFE4B7"/><stop offset=".818" stop-color="#EE6ED0"/><stop offset="1" stop-color="#E3E3FF"/></linearGradient><linearGradient id="paint9_linear_2100_41871" x1="165.888" y1="333.47" x2="198.668" y2="138.09" gradientUnits="userSpaceOnUse"><stop stop-color="#E3E3FF"/><stop offset=".126" stop-color="#C3C0FF"/><stop offset=".313" stop-color="#FFC6AE"/><stop offset=".516" stop-color="#EDEDFF"/><stop offset=".687" stop-color="#FFB3D8"/><stop offset=".883" stop-color="#C2BFFF"/><stop offset="1" stop-color="#E3E3FF"/></linearGradient><linearGradient id="paint10_linear_2100_41871" x1="116.448" y1="224.738" x2="244.036" y2="246.144" gradientUnits="userSpaceOnUse"><stop stop-color="#8EACE7"/><stop offset="1" stop-color="#3532B0"/></linearGradient><linearGradient id="paint11_linear_2100_41871" x1="77.867" y1="426.41" x2="205.538" y2="221.734" gradientUnits="userSpaceOnUse"><stop stop-color="#012517"/><stop offset="1" stop-color="#004230"/></linearGradient><linearGradient id="paint12_linear_2100_41871" x1="108.387" y1="323.826" x2="141.167" y2="128.445" gradientUnits="userSpaceOnUse"><stop stop-color="#E3E3FF"/><stop offset=".126" stop-color="#C3C0FF"/><stop offset=".313" stop-color="#FFC6AE"/><stop offset=".516" stop-color="#EDEDFF"/><stop offset=".687" stop-color="#FFB3D8"/><stop offset=".883" stop-color="#C2BFFF"/><stop offset="1" stop-color="#E3E3FF"/></linearGradient><linearGradient id="paint13_linear_2100_41871" x1="-2.739" y1="-146.939" x2="122.171" y2="356.42" gradientUnits="userSpaceOnUse"><stop stop-color="#0D331B"/><stop offset="1" stop-color="#209364"/></linearGradient><linearGradient id="paint14_linear_2100_41871" x1="162.229" y1="350.596" x2="23.783" y2="329.276" gradientUnits="userSpaceOnUse"><stop stop-color="#074D33"/><stop offset="1" stop-color="#276E54"/></linearGradient><linearGradient id="paint15_linear_2100_41871" x1="162.229" y1="350.596" x2="23.783" y2="329.276" gradientUnits="userSpaceOnUse"><stop stop-color="#6BCFAA"/><stop offset="1" stop-color="#32896A"/></linearGradient><linearGradient id="paint16_linear_2100_41871" x1="180.83" y1="410.774" x2="93.422" y2="185.936" gradientUnits="userSpaceOnUse"><stop stop-color="#012517"/><stop offset="1" stop-color="#004230"/></linearGradient><linearGradient id="paint17_linear_2100_41871" x1="108.824" y1="349.61" x2="-35.971" y2="214.398" gradientUnits="userSpaceOnUse"><stop stop-color="#FFAEDA"/><stop offset=".14" stop-color="#E3E3FF"/><stop offset=".301" stop-color="#EE6ED0"/><stop offset=".59" stop-color="#FFE4B7"/><stop offset=".818" stop-color="#EE6ED0"/><stop offset="1" stop-color="#E3E3FF"/></linearGradient><linearGradient id="paint18_linear_2100_41871" x1="108.824" y1="349.61" x2="-35.971" y2="214.398" gradientUnits="userSpaceOnUse"><stop stop-color="#E3E3FF"/><stop offset=".126" stop-color="#C3C0FF"/><stop offset=".313" stop-color="#FFC6AE"/><stop offset=".516" stop-color="#EDEDFF"/><stop offset=".687" stop-color="#FFB3D8"/><stop offset=".883" stop-color="#C2BFFF"/><stop offset="1" stop-color="#E3E3FF"/></linearGradient><linearGradient id="paint19_linear_2100_41871" x1="-9.127" y1="330.791" x2="79.17" y2="236.236" gradientUnits="userSpaceOnUse"><stop stop-color="#8EACE7"/><stop offset="1" stop-color="#3532B0"/></linearGradient><linearGradient id="paint20_linear_2100_41871" x1="69.034" y1="392.225" x2="-75.761" y2="257.012" gradientUnits="userSpaceOnUse"><stop stop-color="#E3E3FF"/><stop offset=".126" stop-color="#C3C0FF"/><stop offset=".313" stop-color="#FFC6AE"/><stop offset=".516" stop-color="#EDEDFF"/><stop offset=".687" stop-color="#FFB3D8"/><stop offset=".883" stop-color="#C2BFFF"/><stop offset="1" stop-color="#E3E3FF"/></linearGradient><filter id="filter0_b_2100_41871" x="178.149" y="212.961" width="242.599" height="174.914" filterUnits="userSpaceOnUse" color-interpolation-filters="sRGB"><feFlood flood-opacity="0" result="BackgroundImageFix"/><feGaussianBlur in="BackgroundImageFix" stdDeviation="12.64"/><feComposite in2="SourceAlpha" operator="in" result="effect1_backgroundBlur_2100_41871"/><feBlend in="SourceGraphic" in2="effect1_backgroundBlur_2100_41871" result="shape"/></filter><filter id="filter1_f_2100_41871" x="200.916" y="235.714" width="197.28" height="102.885" filterUnits="userSpaceOnUse" color-interpolation-filters="sRGB"><feFlood flood-opacity="0" result="BackgroundImageFix"/><feBlend in="SourceGraphic" in2="BackgroundImageFix" result="shape"/><feGaussianBlur stdDeviation="1.264" result="effect1_foregroundBlur_2100_41871"/></filter><filter id="filter2_f_2100_41871" x="138.412" y="158.303" width="193.426" height="229.259" filterUnits="userSpaceOnUse" color-interpolation-filters="sRGB"><feFlood flood-opacity="0" result="BackgroundImageFix"/><feBlend in="SourceGraphic" in2="BackgroundImageFix" result="shape"/><feGaussianBlur stdDeviation="12.64" result="effect1_foregroundBlur_2100_41871"/></filter><filter id="filter3_b_2100_41871" x="103.618" y="113.252" width="168.042" height="246.859" filterUnits="userSpaceOnUse" color-interpolation-filters="sRGB"><feFlood flood-opacity="0" result="BackgroundImageFix"/><feGaussianBlur in="BackgroundImageFix" stdDeviation="12.64"/><feComposite in2="SourceAlpha" operator="in" result="effect1_backgroundBlur_2100_41871"/><feBlend in="SourceGraphic" in2="effect1_backgroundBlur_2100_41871" result="shape"/></filter><filter id="filter4_f_2100_41871" x="69.154" y="153.138" width="193.426" height="229.259" filterUnits="userSpaceOnUse" color-interpolation-filters="sRGB"><feFlood flood-opacity="0" result="BackgroundImageFix"/><feBlend in="SourceGraphic" in2="BackgroundImageFix" result="shape"/><feGaussianBlur stdDeviation="12.64" result="effect1_foregroundBlur_2100_41871"/></filter><filter id="filter5_f_2100_41871" x="126.369" y="136.003" width="85.992" height="201.889" filterUnits="userSpaceOnUse" color-interpolation-filters="sRGB"><feFlood flood-opacity="0" result="BackgroundImageFix"/><feBlend in="SourceGraphic" in2="BackgroundImageFix" result="shape"/><feGaussianBlur stdDeviation="1.264" result="effect1_foregroundBlur_2100_41871"/></filter><filter id="filter6_f_2100_41871" x="-1.189" y="107.208" width="215.411" height="276.138" filterUnits="userSpaceOnUse" color-interpolation-filters="sRGB"><feFlood flood-opacity="0" result="BackgroundImageFix"/><feBlend in="SourceGraphic" in2="BackgroundImageFix" result="shape"/><feGaussianBlur stdDeviation="21.718" result="effect1_foregroundBlur_2100_41871"/></filter><filter id="filter7_b_2100_41871" x="-67.409" y="173.252" width="215.098" height="209.56" filterUnits="userSpaceOnUse" color-interpolation-filters="sRGB"><feFlood flood-opacity="0" result="BackgroundImageFix"/><feGaussianBlur in="BackgroundImageFix" stdDeviation="12.64"/><feComposite in2="SourceAlpha" operator="in" result="effect1_backgroundBlur_2100_41871"/><feBlend in="SourceGraphic" in2="effect1_backgroundBlur_2100_41871" result="shape"/></filter><filter id="filter8_f_2100_41871" x="-44.658" y="203.609" width="163.871" height="156.451" filterUnits="userSpaceOnUse" color-interpolation-filters="sRGB"><feFlood flood-opacity="0" result="BackgroundImageFix"/><feBlend in="SourceGraphic" in2="BackgroundImageFix" result="shape"/><feGaussianBlur stdDeviation="1.264" result="effect1_foregroundBlur_2100_41871"/></filter></defs></svg>