<svg width="25" height="25" fill="none" xmlns="http://www.w3.org/2000/svg"><rect x=".873" y=".442" width="23.618" height="23.618" rx="11.809" fill="#E1E5F0"/><path d="M17.35 2.903l-9.542 1.26v2.852l9.542-.86V2.903z" fill="#E4003A"/><path d="M13.702 8.65c-1.556 0-2.82.957-3.133 1.354v-1.15H7.808v11.763h2.743v-4.184c.322.405 1.578 1.346 3.142 1.346 2.597 0 4.026-1.406 4.026-4.572 0-3.165-1.428-4.558-4.017-4.558zm-.983 6.85c-1.634 0-2.149-.593-2.149-2.3 0-1.706.511-2.299 2.15-2.299 1.638 0 2.139.585 2.139 2.3 0 1.715-.494 2.296-2.14 2.296v.004z" fill="#00274F"/></svg>