<svg width="28" height="28" fill="none" xmlns="http://www.w3.org/2000/svg"><path d="M24.48 6.036a13.614 13.614 0 011.6 2.69l-12.164 9.088-5.083-3.23V10.7l5.083 3.23L24.48 6.036z" fill="#21A038"/><path d="M3.644 14.31c0-.174.004-.347.013-.519l-3.081-.153a13.654 13.654 0 00.998 5.853A13.51 13.51 0 004.47 23.88l2.185-2.214a10.38 10.38 0 01-2.23-3.372 10.492 10.492 0 01-.782-3.982z" fill="url(#paint0_linear_2100_12810)"/><path d="M13.913 3.904c.172 0 .343.007.513.015L14.58.796a13.164 13.164 0 00-5.778 1.011A13.308 13.308 0 004.47 4.743l2.186 2.215a10.225 10.225 0 013.328-2.261 10.115 10.115 0 013.93-.793z" fill="url(#paint1_linear_2100_12810)"/><path d="M13.914 24.718c-.172 0-.343 0-.514-.014l-.154 3.123a13.153 13.153 0 005.777-1.01 13.3 13.3 0 004.328-2.937l-2.18-2.214a10.23 10.23 0 01-3.329 2.26 10.12 10.12 0 01-3.928.792z" fill="url(#paint2_linear_2100_12810)"/><path d="M19.702 5.72l2.596-1.94A13.184 13.184 0 0013.91.778v3.125a10.124 10.124 0 015.793 1.817z" fill="url(#paint3_linear_2100_12810)"/><path d="M27.267 14.311a13.785 13.785 0 00-.21-2.425l-2.874 2.147v.278c0 1.454-.3 2.892-.883 4.221a10.375 10.375 0 01-2.5 3.493l2.073 2.322a13.492 13.492 0 003.25-4.545 13.651 13.651 0 001.144-5.49z" fill="#21A038"/><path d="M13.914 24.718a10.14 10.14 0 01-4.166-.895 10.255 10.255 0 01-3.447-2.533l-2.29 2.1a13.329 13.329 0 004.484 3.294 13.168 13.168 0 005.419 1.16v-3.126z" fill="url(#paint4_linear_2100_12810)"/><path d="M7.027 6.597L4.955 4.275a13.492 13.492 0 00-3.25 4.544 13.652 13.652 0 00-1.146 5.492h3.085c0-1.454.3-2.893.883-4.221a10.377 10.377 0 012.5-3.493z" fill="url(#paint5_linear_2100_12810)"/><defs><linearGradient id="paint0_linear_2100_12810" x1="5.094" y1="23.489" x2="1.643" y2="13.643" gradientUnits="userSpaceOnUse"><stop offset=".14" stop-color="#F1E813"/><stop offset=".3" stop-color="#E6E418"/><stop offset=".58" stop-color="#C9DA26"/><stop offset=".89" stop-color="#A2CC39"/></linearGradient><linearGradient id="paint1_linear_2100_12810" x1="5.351" y1="5.295" x2="14.062" y2="2.02" gradientUnits="userSpaceOnUse"><stop offset=".06" stop-color="#0FA7DF"/><stop offset=".54" stop-color="#0098F8"/><stop offset=".92" stop-color="#0290EA"/></linearGradient><linearGradient id="paint2_linear_2100_12810" x1="13.042" y1="25.957" x2="22.872" y2="23.766" gradientUnits="userSpaceOnUse"><stop offset=".12" stop-color="#A2CC39"/><stop offset=".28" stop-color="#86C239"/><stop offset=".87" stop-color="#219F38"/></linearGradient><linearGradient id="paint3_linear_2100_12810" x1="13.268" y1="1.825" x2="21.68" y2="4.386" gradientUnits="userSpaceOnUse"><stop offset=".06" stop-color="#0290EA"/><stop offset=".79" stop-color="#0C89CA"/></linearGradient><linearGradient id="paint4_linear_2100_12810" x1="4.785" y1="23.009" x2="13.951" y2="26.39" gradientUnits="userSpaceOnUse"><stop offset=".13" stop-color="#F1E813"/><stop offset=".3" stop-color="#EAE616"/><stop offset=".53" stop-color="#D8DF1F"/><stop offset=".8" stop-color="#BAD52D"/><stop offset=".98" stop-color="#A2CC39"/></linearGradient><linearGradient id="paint5_linear_2100_12810" x1="1.708" y1="14.689" x2="5.462" y2="5.055" gradientUnits="userSpaceOnUse"><stop offset=".07" stop-color="#A2CC39"/><stop offset=".26" stop-color="#81C45E"/><stop offset=".92" stop-color="#0FA7DF"/></linearGradient></defs></svg>