<svg width="30" height="31" fill="none" xmlns="http://www.w3.org/2000/svg"><path d="M22.479 9.175a.755.755 0 00-.237 0 3.209 3.209 0 01-3.093-3.218 3.21 3.21 0 013.218-3.217 3.217 3.217 0 013.217 3.217 3.228 3.228 0 01-3.105 3.218zm-1.285 9.078c1.709.287 3.591-.012 4.913-.898 1.759-1.172 1.759-3.092 0-4.264-1.334-.886-3.242-1.185-4.95-.886M7.478 9.175a.755.755 0 01.236 0 3.209 3.209 0 003.093-3.218A3.21 3.21 0 007.59 2.74a3.217 3.217 0 00-3.217 3.217 3.228 3.228 0 003.105 3.218zm1.284 9.078c-1.708.287-3.591-.012-4.913-.898-1.758-1.172-1.758-3.092 0-4.264 1.334-.886 3.242-1.185 4.95-.886" stroke="#45D197" stroke-width="1.87" stroke-linecap="round" stroke-linejoin="round"/><path d="M15 18.49a.753.753 0 00-.237 0 3.209 3.209 0 01-3.093-3.218 3.21 3.21 0 013.218-3.217 3.217 3.217 0 013.217 3.217c-.013 1.746-1.384 3.167-3.105 3.217zm-3.63 3.926c-1.757 1.172-1.757 3.093 0 4.265 1.996 1.334 5.263 1.334 7.258 0 1.759-1.172 1.759-3.093 0-4.265-1.982-1.322-5.262-1.322-7.257 0z" stroke="#fff" stroke-width="1.87" stroke-linecap="round" stroke-linejoin="round"/></svg>