<svg width="30" height="29" fill="none" xmlns="http://www.w3.org/2000/svg"><path fill-rule="evenodd" clip-rule="evenodd" d="M8.052 6.646A3.927 3.927 0 0115 4.136a3.927 3.927 0 016.33 4.624h.92a3.323 3.323 0 013.323 3.323V14.5c0 .972-.655 1.79-1.548 2.038a26.716 26.716 0 01-.301 6.613 2.971 2.971 0 01-2.599 2.451l-1.105.124a45.194 45.194 0 01-10.04 0l-1.105-.124a2.971 2.971 0 01-2.598-2.45 26.718 26.718 0 01-.302-6.614A2.116 2.116 0 014.427 14.5v-2.417A3.323 3.323 0 017.75 8.76h.92a3.909 3.909 0 01-.618-2.114zm6.042 0a2.115 2.115 0 10-4.23 0 2.115 2.115 0 004.23 0zM18.02 8.76a2.115 2.115 0 100-4.229 2.115 2.115 0 000 4.23zM6.24 12.083c0-.834.676-1.51 1.51-1.51h6.344v4.23H6.542a.302.302 0 01-.302-.303v-2.417zm9.666 4.532h6.307c.17 2.079.077 4.172-.276 6.23-.087.509-.5.899-1.013.956l-1.105.124c-1.3.145-2.606.231-3.913.258v-7.568zm0-1.813h7.553a.302.302 0 00.302-.302v-2.417a1.51 1.51 0 00-1.51-1.51h-6.345v4.23zm-1.812 1.813v7.569a43.407 43.407 0 01-3.913-.26l-1.105-.123a1.159 1.159 0 01-1.013-.956 24.906 24.906 0 01-.275-6.23h6.306z" fill="#fff"/></svg>