<svg width="39" height="39" fill="none" xmlns="http://www.w3.org/2000/svg"><path d="M9.27 18.963s7.863-3.274 10.59-4.426c1.046-.461 4.591-1.937 4.591-1.937s1.636-.645 1.5.923c-.046.645-.41 2.904-.773 5.348-.545 3.457-1.136 7.238-1.136 7.238s-.09 1.06-.864 1.245c-.772.184-2.045-.645-2.272-.83-.182-.138-3.41-2.213-4.591-3.227-.318-.277-.682-.83.045-1.476a174.872 174.872 0 004.773-4.61c.545-.553 1.09-1.844-1.182-.277a387.785 387.785 0 01-6.409 4.38s-.727.461-2.09.046a93.498 93.498 0 01-2.955-.968s-1.09-.691.773-1.43z" fill="#fff"/></svg>