<svg width="31" height="31" fill="none" xmlns="http://www.w3.org/2000/svg"><g clip-path="url(#clip0_2100_38575)"><path d="M15.5 31C24.06 31 31 24.06 31 15.5 31 6.94 24.06 0 15.5 0 6.94 0 0 6.94 0 15.5 0 24.06 6.94 31 15.5 31z" fill="url(#paint0_linear_2100_38575)"/><path fill-rule="evenodd" clip-rule="evenodd" d="M7.017 15.335c4.518-1.968 7.531-3.266 9.039-3.893 4.304-1.79 5.199-2.102 5.782-2.112.128-.002.415.03.6.18.157.128.2.3.221.42.02.12.046.396.026.61-.233 2.451-1.243 8.399-1.756 11.144-.217 1.162-.645 1.551-1.06 1.59-.9.082-1.583-.596-2.455-1.167-1.364-.894-2.135-1.451-3.459-2.324-1.53-1.008-.538-1.563.334-2.468.228-.237 4.194-3.845 4.27-4.172.01-.04.02-.193-.071-.274-.09-.08-.225-.053-.321-.031-.137.031-2.316 1.472-6.538 4.321-.619.425-1.18.632-1.681.621-.554-.012-1.618-.313-2.41-.57-.97-.316-1.742-.482-1.675-1.018.035-.28.42-.565 1.154-.857z" fill="#fff"/></g><defs><linearGradient id="paint0_linear_2100_38575" x1="15.5" y1="0" x2="15.5" y2="30.77" gradientUnits="userSpaceOnUse"><stop stop-color="#2AABEE"/><stop offset="1" stop-color="#229ED9"/></linearGradient><clipPath id="clip0_2100_38575"><path fill="#fff" d="M0 0h31v31H0z"/></clipPath></defs></svg>