<svg width="20" height="20" fill="none" xmlns="http://www.w3.org/2000/svg"><g clip-path="url(#clip0_2100_25800)"><path d="M10 20c5.523 0 10-4.477 10-10S15.523 0 10 0 0 4.477 0 10s4.477 10 10 10z" fill="#26A17B"/><path fill-rule="evenodd" clip-rule="evenodd" d="M11.201 10.865v-.002c-.069.005-.423.027-1.214.027a26.36 26.36 0 01-1.232-.027v.002c-2.43-.107-4.243-.53-4.243-1.036S6.325 8.9 8.755 8.792v1.652c.16.011.614.038 1.243.038.754 0 1.132-.031 1.203-.037V8.793c2.425.108 4.234.531 4.234 1.036 0 .506-1.809.928-4.234 1.036zm0-2.244V7.142h3.384V4.887H5.372v2.255h3.383V8.62c-2.75.127-4.818.672-4.818 1.324 0 .653 2.068 1.197 4.818 1.324v4.739h2.446v-4.74c2.746-.127 4.809-.671 4.809-1.323 0-.652-2.063-1.196-4.809-1.323z" fill="#fff"/></g><defs><clipPath id="clip0_2100_25800"><rect width="20" height="20" rx="10" fill="#fff"/></clipPath></defs></svg>